<svg width="40" height="40" viewBox="0 0 40 40" fill="none" xmlns="http://www.w3.org/2000/svg">
<path d="M15.7864 6.95703C14.952 6.95703 14.2164 7.42272 13.7137 8.11222C13.211 8.801 12.9156 9.72299 12.9156 10.7345C12.9156 11.7467 13.211 12.6687 13.7137 13.3575C14.2164 14.0463 14.952 14.5127 15.7864 14.5127C16.6207 14.5127 17.3563 14.0463 17.859 13.3575C18.3617 12.6687 18.6564 11.7467 18.6564 10.7345C18.6564 9.72371 18.3624 8.801 17.859 8.11222C17.3563 7.42272 16.6207 6.95703 15.7864 6.95703ZM23.7527 6.95703C22.9184 6.95703 22.1828 7.42272 21.6801 8.11222C21.1774 8.801 20.8827 9.72299 20.8827 10.7345C20.8827 11.7467 21.1766 12.6687 21.6801 13.3575C22.1828 14.0463 22.9184 14.5127 23.7527 14.5127C24.587 14.5127 25.3226 14.0463 25.8253 13.3575C26.328 12.6687 26.6235 11.7467 26.6235 10.7345C26.6235 9.72371 26.328 8.801 25.8253 8.11222C25.3226 7.42272 24.587 6.95703 23.7527 6.95703ZM15.7864 7.67902C16.329 7.67902 16.8415 7.97721 17.2409 8.5252C17.6404 9.07247 17.9027 9.85945 17.9027 10.7345C17.9027 11.6103 17.6404 12.3951 17.2409 12.9431C16.8415 13.4904 16.329 13.7907 15.7864 13.7907C15.2437 13.7907 14.7312 13.4904 14.3318 12.9431C13.9323 12.3951 13.6693 11.6103 13.6693 10.7345C13.6693 9.85945 13.9323 9.07247 14.3325 8.5252C14.732 7.97721 15.243 7.67902 15.7864 7.67902ZM23.7527 7.67902C24.2954 7.67902 24.8079 7.97721 25.2073 8.5252C25.6068 9.07247 25.8698 9.85945 25.8698 10.7345C25.8698 11.6103 25.6068 12.3951 25.2066 12.9431C24.8071 13.4904 24.2961 13.7907 23.7527 13.7907C23.2101 13.7907 22.6976 13.4904 22.2981 12.9431C21.8987 12.3951 21.6364 11.6103 21.6364 10.7345C21.6364 9.85945 21.8987 9.07247 22.2981 8.5252C22.6976 7.97721 23.2101 7.67902 23.7527 7.67902ZM9.82854 12.6622C8.99422 12.6622 8.25863 13.1286 7.75593 13.8174C7.25096 14.5062 6.95703 15.4282 6.95703 16.4404C6.95703 17.4512 7.25172 18.3739 7.75517 19.0627C8.25788 19.7522 8.99347 20.2179 9.82779 20.2179C10.6621 20.2179 11.3969 19.7522 11.9004 19.0627C12.4031 18.3739 12.6978 17.4519 12.6978 16.4404C12.6978 15.4282 12.4031 14.5062 11.9004 13.8174C11.3969 13.1286 10.6629 12.6622 9.82854 12.6622ZM29.712 12.6622C28.8777 12.6622 28.1429 13.1286 27.6394 13.8174C27.1367 14.5062 26.842 15.4282 26.842 16.4404C26.842 17.4512 27.1367 18.3739 27.6394 19.0627C28.1429 19.7522 28.8777 20.2179 29.712 20.2179C30.5464 20.2179 31.2819 19.7522 31.7846 19.0627C32.2881 18.3739 32.582 17.4519 32.582 16.4411C32.582 15.4289 32.2873 14.5069 31.7839 13.8181C31.2812 13.1294 30.5456 12.6629 29.7113 12.6629L29.712 12.6622ZM9.82854 13.3842C10.3712 13.3842 10.8829 13.6846 11.2831 14.2318C11.6826 14.7791 11.9449 15.5646 11.9449 16.4404C11.9449 17.3155 11.6826 18.1024 11.2824 18.6497C10.8829 19.1977 10.3712 19.4959 9.82779 19.4959C9.28514 19.4959 8.77339 19.1977 8.37319 18.6497C7.97374 18.1024 7.71146 17.3155 7.71146 16.4404C7.71146 15.5646 7.97449 14.7798 8.37394 14.2318C8.77339 13.6846 9.28589 13.3842 9.82854 13.3842ZM29.712 13.3842C30.2547 13.3842 30.7672 13.6846 31.1666 14.2318C31.5661 14.7791 31.8284 15.5646 31.8284 16.4411C31.8284 17.3162 31.5653 18.1032 31.1659 18.6504C30.7664 19.1984 30.2539 19.4966 29.7113 19.4966C29.1686 19.4966 28.6569 19.1984 28.2567 18.6504C27.8572 18.1032 27.595 17.3162 27.595 16.4411C27.595 15.5654 27.8572 14.7806 28.2574 14.2326C28.6569 13.6853 29.1686 13.3842 29.712 13.3842ZM19.7695 15.6932C17.3306 15.6932 15.2007 16.909 14.1343 18.7234C13.7786 19.3197 13.5035 20.2937 13.0467 20.8691C12.5493 21.4951 11.9283 21.9868 11.2492 22.3637C11.2454 22.366 11.2416 22.3684 11.2379 22.3709C9.55571 23.3874 8.47041 25.0906 8.46891 26.9895C8.46891 30.0912 11.3268 32.5806 14.8043 32.5806C15.7069 32.5798 16.6003 32.4078 17.4331 32.0745C18.1734 31.7791 18.9676 31.6277 19.7695 31.629C20.5933 31.629 21.3726 31.7857 22.0954 32.0716H22.0969C22.9259 32.4037 23.8175 32.5813 24.7348 32.582C28.2122 32.582 31.0702 30.0926 31.0702 26.9909C31.0679 25.0885 29.9781 23.3846 28.2959 22.3716C28.2919 22.3691 28.2879 22.3667 28.2838 22.3644C27.5898 21.9844 26.9809 21.4767 26.4923 20.8706C26.2662 20.5868 26.0401 20.1377 25.8562 19.7248C25.6746 19.3147 25.5548 18.9732 25.41 18.7356H25.4085C24.3496 16.9162 22.216 15.6932 19.7695 15.6932ZM19.7695 16.4151C21.9537 16.4151 23.8334 17.509 24.7521 19.0858C24.7536 19.0885 24.7551 19.0911 24.7566 19.0937C24.7996 19.1638 24.9707 19.5739 25.1636 20.0063C25.355 20.4388 25.5879 20.924 25.8916 21.3059H25.8932C26.4584 22.0178 27.1593 22.5694 27.9055 22.986C29.3842 23.8813 30.3142 25.3527 30.3172 26.988C30.3172 29.6637 27.8391 31.8572 24.7348 31.8572C23.9285 31.8568 23.1303 31.7024 22.387 31.403H22.384C21.5553 31.0735 20.6668 30.9042 19.7695 30.9048C18.8425 30.9048 17.9592 31.0832 17.1437 31.4073C16.4027 31.7041 15.6075 31.857 14.8043 31.8572C11.6999 31.8572 9.22258 29.6637 9.22258 26.988C9.22334 25.3563 10.1489 23.8863 11.6276 22.9875L11.6396 22.9802C12.417 22.5538 13.0988 21.9846 13.6459 21.3052H13.6474C14.2489 20.5478 14.5488 19.4836 14.79 19.08C15.7148 17.5025 17.5914 16.4151 19.7695 16.4151Z" fill="white" stroke="white"/>
</svg>
