<svg width="40" height="40" viewBox="0 0 40 40" fill="none" xmlns="http://www.w3.org/2000/svg">
<rect width="40.0014" height="40.0001" rx="20" fill="#EFF5F2"/>
<path d="M26.4226 21.0203C26.4629 20.886 26.4347 20.541 26.6028 20.4833C26.7373 20.4349 26.6942 20.6779 26.6862 20.7424C26.6608 20.9432 26.6158 21.1411 26.5517 21.3331C26.4172 21.7547 25.921 22.579 26.4952 22.9052C26.6297 22.9791 26.8583 22.9844 26.9309 23.1388C27.0439 23.3791 26.6942 23.4073 26.553 23.359C26.3863 23.2972 26.2491 23.2677 26.1967 23.4933C26.1738 23.5899 26.1967 23.8195 26.0515 23.8316C25.8619 23.8463 25.9587 23.4798 25.8121 23.5523C25.6655 23.6248 25.6696 24.3323 25.4087 24.1712C25.285 24.0947 25.367 23.9309 25.398 23.8302C25.4501 23.6659 25.4884 23.4975 25.5122 23.3268C25.5398 23.0615 25.5479 22.7945 25.5365 22.528C25.5365 22.2783 25.5808 22.0608 25.5943 21.8137C25.6279 21.2418 25.636 20.6685 25.675 20.0966C25.7086 19.5985 25.7785 19.1031 25.8094 18.6051C25.8721 17.8318 25.7704 17.054 25.5109 16.3227C25.2178 15.5038 25.0954 14.6593 24.973 13.8082C24.8808 13.2429 24.7596 12.6828 24.61 12.13C24.5189 11.7764 24.3446 11.4496 24.1017 11.1768C23.8838 10.9324 23.6014 10.8277 23.3755 10.6102C23.0192 10.2665 22.8592 9.6248 22.3509 9.46638C22.3435 9.46448 22.3356 9.4649 22.3284 9.46756C22.3213 9.47022 22.3151 9.47501 22.3107 9.48129C22.3063 9.48756 22.3039 9.49503 22.3039 9.50268C22.3039 9.51033 22.3062 9.5178 22.3105 9.52411C22.4732 9.74026 22.7381 9.91881 22.7139 10.2249C22.7133 10.2335 22.7095 10.2415 22.7033 10.2474C22.6971 10.2534 22.6889 10.2568 22.6803 10.2571C22.6003 10.2562 22.5218 10.2354 22.4517 10.1967C22.0712 10.0276 21.5978 9.95775 21.1904 9.8772C20.7399 9.78725 19.6117 9.79933 19.5391 9.13477C19.4853 8.64877 19.9896 8.54674 20.358 8.69442C20.3651 8.69717 20.3728 8.69765 20.3802 8.69579C20.3875 8.69393 20.3941 8.68984 20.399 8.68407C20.4039 8.6783 20.4068 8.67115 20.4074 8.66361C20.4081 8.65608 20.4063 8.64854 20.4024 8.64206C20.367 8.59001 20.3429 8.53114 20.3318 8.46923C20.3206 8.40732 20.3225 8.34375 20.3375 8.28264C20.3524 8.22153 20.3801 8.16423 20.4186 8.11444C20.4571 8.06466 20.5056 8.02349 20.5611 7.99361C20.865 7.81505 21.2845 8.04328 21.5669 8.15874C21.575 8.16208 21.584 8.16228 21.5922 8.15929C21.6005 8.15631 21.6073 8.15037 21.6113 8.14263C22.0497 7.42571 22.6871 8.20842 23.0905 8.27689C23.3661 8.32522 23.7897 8.04463 24.1528 8.12384C24.5884 8.21781 24.8655 8.4447 24.9596 8.87969C24.9614 8.88762 24.9658 8.89472 24.9722 8.89983C24.9785 8.90495 24.9864 8.90778 24.9945 8.90788C25.5512 8.92668 26.0784 8.83941 26.2196 9.49726C26.2215 9.50616 26.2267 9.514 26.2342 9.51922C26.2417 9.52445 26.2509 9.52667 26.2599 9.52545C26.9054 9.4449 27.4204 10.4142 26.8368 10.821C26.4629 11.0815 26.2263 10.5901 25.8699 10.7055C25.7825 10.7324 25.6427 10.8398 25.7355 10.9324C25.757 10.9579 25.8121 10.9324 25.8404 10.9472C25.8814 10.9662 25.9178 10.994 25.947 11.0284C25.9763 11.0629 25.9976 11.1033 26.0097 11.1469C26.0217 11.1905 26.0241 11.2361 26.0167 11.2807C26.0093 11.3252 25.9922 11.3677 25.9668 11.405C25.8323 11.6198 25.1102 11.6144 25.2944 11.981C25.4195 11.9957 25.3442 11.8051 25.5001 11.7997C25.8484 11.789 25.7274 12.3891 25.6521 12.5515C25.5338 12.808 25.3482 13.0174 25.3079 13.3047C25.2742 13.5423 25.4006 13.788 25.4423 14.0189C25.4961 14.3237 25.2917 14.9507 25.6171 15.1292C25.8215 15.242 26.2451 14.8822 26.3298 14.6916C26.3327 14.6853 26.3374 14.68 26.3432 14.6762C26.3491 14.6725 26.3558 14.6705 26.3628 14.6705C26.3697 14.6705 26.3765 14.6725 26.3823 14.6762C26.3882 14.68 26.3928 14.6853 26.3957 14.6916C26.4643 14.8634 26.3392 15.0943 26.1725 15.2017C26.1654 15.206 26.1599 15.2125 26.157 15.2203C26.1542 15.2281 26.154 15.2367 26.1567 15.2445C26.1594 15.2524 26.1647 15.2591 26.1717 15.2635C26.1788 15.2679 26.1871 15.2698 26.1954 15.2688C26.228 15.2608 26.2622 15.2608 26.2949 15.2688C26.3876 15.3051 26.2478 15.4031 26.2007 15.4219C26.1429 15.4458 26.0803 15.4559 26.0179 15.4514C26.0098 15.4518 26.002 15.4548 25.9958 15.4599C25.9896 15.465 25.9851 15.472 25.9832 15.4799C25.9812 15.4877 25.9818 15.4959 25.9849 15.5034C25.988 15.5108 25.9934 15.5171 26.0004 15.5212C26.1348 15.5843 26.2949 15.6031 26.385 15.7481C26.432 15.8247 26.4455 15.9777 26.51 16.0475C26.5133 16.0508 26.5159 16.0546 26.5177 16.0589C26.5195 16.0632 26.5204 16.0677 26.5204 16.0724C26.5204 16.077 26.5195 16.0816 26.5177 16.0858C26.5159 16.0901 26.5133 16.0939 26.51 16.0972C26.4011 16.1871 26.2182 16.0556 26.1362 15.979C26.0017 15.8448 25.8672 15.8918 25.8511 16.0838C25.8468 16.261 25.9001 16.4348 26.0031 16.5792C26.0932 16.6597 26.1617 16.6033 26.2209 16.5322C26.2254 16.5265 26.2315 16.5224 26.2383 16.5202C26.2452 16.518 26.2526 16.5179 26.2595 16.5199C26.2664 16.5219 26.2726 16.526 26.2772 16.5315C26.2818 16.537 26.2847 16.5438 26.2854 16.551C26.3298 17.0155 26.5692 17.429 26.5261 17.9123C26.4939 18.2788 26.3406 18.6239 26.276 18.9863C26.2276 19.2549 26.3258 19.514 26.3661 19.7798C26.4049 20.0303 26.3999 20.2855 26.3513 20.5343C26.3325 20.639 26.3137 20.7437 26.2908 20.8484C26.276 20.9223 26.2249 21.0619 26.2733 21.1304C26.3325 21.2499 26.4078 21.0713 26.4226 21.0203Z" fill="#1F515B"/>
<path d="M29.2867 28.1836C29.3305 28.2131 29.3642 28.2552 29.3835 28.3044C29.405 28.4051 29.2853 28.4494 29.249 28.5246C29.2272 28.5849 29.2234 28.6504 29.2382 28.7128C29.253 28.7753 29.2858 28.8321 29.3324 28.8763C29.4059 28.9533 29.4971 29.0114 29.598 29.0456C29.6989 29.0797 29.8067 29.0889 29.9119 29.0723C30.0007 29.0723 30.1809 29.0495 30.2105 29.1636C30.2401 29.2777 30.0652 29.2737 29.9899 29.2616C29.9967 29.2777 30.037 29.3073 30.0357 29.3234C30.0343 29.3395 29.9819 29.3677 29.963 29.3757C29.8743 29.4187 29.8407 29.3757 29.7533 29.361C29.7533 29.3755 29.758 29.3896 29.7667 29.4012C29.7755 29.4129 29.7877 29.4213 29.8017 29.4254C29.7197 29.5274 29.518 29.4455 29.448 29.3717C29.448 29.4026 29.4776 29.416 29.448 29.4375C29.4184 29.459 29.3835 29.4375 29.3687 29.4241C29.3677 29.4411 29.3677 29.4581 29.3687 29.4751C29.3781 29.4952 29.3942 29.4992 29.4104 29.5113C29.4482 29.5353 29.4878 29.5563 29.5287 29.5744C29.7331 29.6805 29.9563 29.5959 30.1405 29.4858C30.2105 29.4455 30.3476 29.3516 30.3382 29.5073C30.3382 29.5946 30.2185 29.6577 30.1473 29.6805C30.2051 29.663 30.357 29.6375 30.4041 29.6912C30.5036 29.804 30.0854 29.8161 30.033 29.8161C29.9156 29.8242 29.7977 29.8175 29.682 29.7959C29.5239 29.776 29.3727 29.7189 29.2409 29.6295C29.1063 29.525 29.0048 29.3838 28.949 29.223C28.8931 29.0621 28.8852 28.8885 28.9263 28.7233C28.968 28.5326 29.1038 28.3769 29.1347 28.1862C29.1468 28.1124 29.1347 27.9902 29.2046 27.9419C29.1927 28.0078 29.2031 28.0759 29.2342 28.1352C29.2493 28.1537 29.267 28.17 29.2867 28.1836Z" fill="#1F515B"/>
<path d="M19.443 27.8209C19.4739 27.6867 19.1646 27.5524 19.1444 27.4249C19.2381 27.3958 19.3283 27.3567 19.4134 27.3081C19.4203 27.3031 19.4257 27.2965 19.4292 27.2888C19.4328 27.2811 19.4342 27.2726 19.4334 27.2641C19.4325 27.2557 19.4295 27.2476 19.4246 27.2407C19.4197 27.2338 19.413 27.2284 19.4053 27.2248C19.2708 27.1617 19.0019 27.249 18.8674 27.2571C18.6392 27.2845 18.4077 27.2531 18.1951 27.1658C17.9607 27.0674 17.744 26.9314 17.5537 26.763C17.4784 26.6892 17.4004 26.6287 17.4434 26.52C17.4751 26.4508 17.5291 26.3941 17.5967 26.3589C17.7306 26.2836 17.8792 26.2378 18.0324 26.2246C18.2139 26.2018 18.0781 26.0904 17.9611 26.0649C17.7957 26.0273 17.5846 26.0984 17.4152 26.1011C17.1247 26.1011 17.0481 25.9145 16.8773 25.7145C16.7539 25.5409 16.602 25.3893 16.4282 25.2661C16.3463 25.2271 16.257 25.2061 16.1663 25.2044C16.0756 25.2028 15.9856 25.2206 15.9024 25.2567C15.5756 25.4527 15.8096 26.038 15.979 26.2542C16.0746 26.3437 16.1546 26.4485 16.2157 26.5643C16.2372 26.6719 16.2344 26.7828 16.2076 26.8892C16.1903 27.0179 16.1981 27.1487 16.2305 27.2745C16.2507 27.347 16.2923 27.5726 16.408 27.543C16.4443 27.4383 16.3676 27.3282 16.408 27.2128C16.5761 26.7858 16.9754 27.0785 17.243 27.2128C17.4507 27.3164 17.6728 27.3884 17.9019 27.4262C18.0888 27.4531 18.2919 27.4101 18.4721 27.4705C18.6738 27.5376 18.7935 27.7149 18.975 27.8062C19.0732 27.8558 19.3287 27.9847 19.4201 27.8666C19.4312 27.8534 19.4391 27.8377 19.443 27.8209Z" fill="#1F515B"/>
<path d="M21.4997 25.8613L21.4687 25.9029C21.4577 25.8919 21.4427 25.8858 21.427 25.8858C21.4114 25.8858 21.3964 25.8919 21.3854 25.9029C21.4109 25.9029 21.4284 25.9029 21.4338 25.9312C21.4486 25.9863 21.3786 26.0092 21.3477 26.0374C21.3008 26.0813 21.264 26.1351 21.2401 26.1948C21.2106 26.2741 21.259 26.344 21.3477 26.3171C21.4365 26.2902 21.4822 26.1558 21.4728 26.0616C21.4634 25.9675 21.501 25.8411 21.583 25.8128C21.566 25.812 21.549 25.8162 21.5342 25.8247C21.5194 25.8333 21.5074 25.846 21.4997 25.8613Z" fill="#1F515B"/>
<path d="M21.9646 16.6195C21.9919 16.6892 22.0295 16.7543 22.0762 16.8128C22.169 16.8988 22.1784 16.935 22.0762 17.0142C21.9246 17.1358 21.7323 17.1953 21.5383 17.1807H21.459C21.4668 17.2009 21.4758 17.2206 21.4859 17.2398C21.542 17.3263 21.6208 17.3959 21.7137 17.4409C21.8067 17.4858 21.9102 17.5045 22.013 17.4948C22.0671 17.4991 22.1214 17.4916 22.1723 17.4728C22.2231 17.4541 22.2693 17.4246 22.3077 17.3863C22.346 17.348 22.3756 17.3019 22.3944 17.2511C22.4131 17.2003 22.4207 17.146 22.4164 17.0921C22.4164 17.0746 22.4325 17.0424 22.4406 17.0424C22.452 17.0418 22.4635 17.0437 22.4741 17.0478C22.4848 17.052 22.4945 17.0584 22.5025 17.0666C22.5172 17.0892 22.5281 17.1142 22.5347 17.1404C22.567 17.2344 22.6329 17.2572 22.7136 17.1941C22.7551 17.1621 22.7892 17.1216 22.8135 17.0752C22.8379 17.0289 22.852 16.9779 22.8548 16.9256C22.8548 16.8544 22.8198 16.8195 22.7485 16.8263C22.727 16.8263 22.7042 16.8397 22.6867 16.8343C22.6577 16.8241 22.6298 16.811 22.6033 16.7954C22.6195 16.7739 22.6316 16.7444 22.6531 16.735C22.6875 16.7193 22.7177 16.6957 22.7411 16.666C22.7645 16.6364 22.7804 16.6015 22.7875 16.5645C22.8035 16.4824 22.8012 16.3978 22.7808 16.3167C22.7605 16.2355 22.7225 16.1599 22.6697 16.095C22.6169 16.0301 22.5505 15.9775 22.4751 15.941C22.3997 15.9046 22.3173 15.885 22.2335 15.8838C22.2091 15.8886 22.1853 15.8958 22.1623 15.9053C22.1878 15.9335 22.2053 15.9523 22.2201 15.9724C22.2844 16.0544 22.3305 16.1491 22.3556 16.2502C22.3806 16.3513 22.3839 16.4566 22.3653 16.5591C22.3572 16.6114 22.3277 16.6705 22.2618 16.6262C22.169 16.5564 22.0829 16.5886 21.9646 16.6195Z" fill="#1F515B"/>
<path d="M29.0277 22.927C29.1191 22.8532 29.2307 22.7686 29.2442 22.6746C29.2657 22.5202 29.1097 22.6196 29.064 22.6666C28.9889 22.7449 28.9095 22.8189 28.826 22.8881C28.7493 22.9431 28.6646 22.8626 28.5705 22.9149C28.4965 22.9552 28.5113 23.021 28.4669 23.0734C28.4231 23.112 28.3748 23.1454 28.323 23.1727C28.2585 23.2224 28.1065 23.3419 28.2397 23.4063C28.3324 23.452 28.4118 23.3419 28.479 23.2989C28.4955 23.2873 28.5143 23.2795 28.5342 23.2761C28.6014 23.2761 28.6189 23.3633 28.6444 23.4412C28.7162 23.6951 28.7421 23.9596 28.7211 24.2226C28.7353 24.3795 28.7587 24.5355 28.791 24.6898C28.802 24.8405 28.7948 24.9919 28.7695 25.1409C28.7296 25.3153 28.6802 25.4874 28.6216 25.6564L28.4763 25.549C28.3311 25.4389 28.2074 25.2966 27.9963 25.2993C27.9258 25.3076 27.8579 25.3303 27.7966 25.3661C27.7354 25.4018 27.6822 25.4498 27.6404 25.507C27.5986 25.5642 27.5692 25.6295 27.5538 25.6986C27.5384 25.7677 27.5375 25.8393 27.5512 25.9088C27.56 25.9567 27.56 26.0059 27.5512 26.0538C27.5337 26.2726 27.566 26.3129 27.7717 26.3223C27.7717 26.4391 27.7139 26.4686 27.6063 26.4968C27.3975 26.5495 27.1947 26.6238 27.0012 26.7184C26.9496 26.7483 26.8921 26.7668 26.8326 26.7723C26.7732 26.7779 26.7132 26.7705 26.657 26.7506C26.4512 26.6821 26.2455 26.6163 26.0438 26.5371C25.9093 26.4888 25.7964 26.4029 25.6659 26.372C25.4225 26.3049 25.0541 26.427 24.9842 26.6982C24.9425 26.8607 25.1428 26.8123 25.2329 26.7747C25.3355 26.7177 25.4415 26.6671 25.5503 26.623C25.6445 26.6154 25.7387 26.6379 25.8192 26.6875C26.1016 26.8043 26.3947 26.8969 26.6758 27.0191C26.8477 27.0993 27.0437 27.1118 27.2244 27.054C27.3575 27.0247 27.4922 27.0036 27.6278 26.9909C27.7193 26.9761 27.7825 27.0245 27.7852 27.0996C27.7941 27.2913 27.7896 27.4833 27.7717 27.6742C27.7596 27.7924 27.6736 27.8192 27.5512 27.8085C27.211 27.7736 26.8694 27.7575 26.5279 27.732C26.4804 27.7243 26.4317 27.7335 26.3904 27.758C26.3491 27.7826 26.3178 27.8209 26.302 27.8662C26.2078 28.1428 26.15 28.6718 25.8986 28.8637C25.6928 29.0222 25.3284 28.8718 25.0823 29.0087C24.9774 29.0678 24.765 29.2571 24.9021 29.3752C25.0393 29.4934 25.2276 29.2799 25.3365 29.241C25.6054 29.139 25.8623 29.4115 26.0922 29.2209C26.2818 29.0638 26.3181 28.763 26.4163 28.5496C26.4198 28.5413 26.4238 28.5332 26.4284 28.5254C26.5763 28.2636 26.5776 28.2569 26.8775 28.3066C26.981 28.3214 27.0805 28.3495 27.1814 28.3737C27.2154 28.3855 27.2486 28.3994 27.2809 28.4153C27.2162 28.498 27.1412 28.5719 27.0577 28.6355C26.5844 28.904 26.6825 29.2047 26.8923 29.6236C27.0186 29.876 27.13 30.1355 27.2258 30.4009C27.2486 30.468 27.2466 30.541 27.2202 30.6067C27.1938 30.6725 27.1448 30.7266 27.0819 30.7594C26.9579 30.8401 26.8635 30.9588 26.8129 31.0977C26.7901 31.1743 26.7578 31.4347 26.8681 31.4683C26.938 31.4884 26.973 31.3917 26.9945 31.3434C27.0347 31.2018 27.1167 31.0755 27.2298 30.9809C27.3414 30.9084 27.484 30.8628 27.5458 30.7352C27.5622 30.6865 27.5676 30.6347 27.5615 30.5836C27.5555 30.5326 27.5382 30.4835 27.5108 30.4399C27.4084 30.1775 27.3244 29.9084 27.2594 29.6344C27.231 29.574 27.2261 29.5051 27.2458 29.4414C27.2654 29.3776 27.3081 29.3234 27.3656 29.2893C27.5216 29.2034 27.6843 29.1336 27.8443 29.0557C27.9479 29.0047 28.1294 28.8342 28.237 28.9604C28.3177 29.0544 28.2908 29.2289 28.3109 29.3417C28.3461 29.5589 28.4369 29.7634 28.5745 29.9353C28.7121 30.1073 28.8918 30.2408 29.0962 30.3231C29.5884 30.5003 30.1464 30.3231 30.6225 30.1794C30.8726 30.1056 31.3271 29.9968 31.553 30.1794C31.6143 30.2315 31.6611 30.2986 31.6886 30.3742C31.7162 30.4497 31.7237 30.5311 31.7103 30.6104C31.6659 30.9178 31.4131 31.2024 31.0877 31.185C30.8188 31.1716 30.4934 30.9608 30.7247 30.6842C30.8121 30.5782 31.0178 30.5621 30.9936 30.7218C30.9815 30.7943 30.8833 30.7554 30.9277 30.8722C30.9721 30.989 31.1066 30.938 31.1671 30.8628C31.4494 30.511 30.8672 30.2949 30.5996 30.4265C30.2688 30.5902 30.3159 31.0642 30.5646 31.2682C31.1765 31.7717 31.9981 31.2387 31.9994 30.5124C31.9994 30.0103 31.596 29.735 31.1227 29.7592C30.531 29.7914 30.0389 30.2143 29.4311 30.1741C28.8233 30.1338 28.5086 29.6008 28.4898 29.0571C28.495 28.7491 28.5818 28.4481 28.7412 28.1844C28.9486 27.7786 29.0872 27.3413 29.1514 26.8902C29.1807 26.7165 29.1733 26.5386 29.1299 26.368C29.0531 26.0331 29.0531 25.6852 29.1299 25.3503C29.1744 25.0424 29.151 24.7286 29.0613 24.4307C28.9939 24.1655 28.9427 23.8965 28.908 23.6251C28.8851 23.4681 28.8206 23.1365 28.9389 23.0009C29.0088 22.923 29.0814 22.8975 29.1648 22.9807C29.0465 23.0076 29.2052 23.2814 29.2052 23.3445C29.2495 23.2533 29.3813 23.0089 29.2388 22.9324C29.1715 22.8961 29.0465 22.9324 28.9967 22.8518" fill="#1F515B"/>
<path d="M13.0062 22.2881L12.9605 22.323C12.3594 22.7741 12.7211 22.9943 12.9833 23.5461C13.1622 23.9193 13.3356 24.5288 12.9241 24.8041C12.8349 24.6688 12.7732 24.5174 12.7426 24.3583C12.5517 23.7367 11.8323 24.1959 11.7368 23.7246C11.5768 23.9421 11.4678 24.1892 11.2984 24.3959C12.4656 24.2509 12.6969 26.5225 11.8511 26.5749C11.9163 26.4609 11.9454 26.3298 11.9346 26.1989C11.9237 26.0681 11.8734 25.9436 11.7903 25.8418C11.7072 25.7401 11.5951 25.6659 11.4689 25.629C11.3427 25.5921 11.2082 25.5942 11.0833 25.6351C9.85018 26.0097 10.0963 27.9402 10.5091 28.7713C11.1021 29.9648 12.9295 29.2975 12.6861 28.0221C12.592 27.524 12.1483 27.0192 11.6104 26.9776C11.2527 26.9508 10.9555 27.1938 10.8036 27.4985C10.7301 27.643 10.6876 27.8012 10.6788 27.963C10.67 28.1249 10.6951 28.2867 10.7525 28.4383C10.7632 28.4652 10.9609 28.7847 10.9192 28.786C10.8372 28.786 10.7605 28.6773 10.7148 28.6196C10.6136 28.481 10.5424 28.3228 10.5058 28.1552C10.4692 27.9877 10.4681 27.8143 10.5024 27.6462C10.6449 27.0689 11.1249 26.7333 11.7126 26.7064C11.9937 26.6912 12.2727 26.7632 12.5112 26.9124C12.7498 27.0617 12.9363 27.2809 13.0452 27.5402C13.4486 28.4799 13.2523 29.5902 12.3432 30.1407C11.9224 30.3858 11.4354 30.4938 10.9502 30.4495C10.465 30.4052 10.0057 30.2109 9.63638 29.8936C8.95596 29.3016 8.67761 28.4907 8.47053 27.6516C8.4006 27.3683 8.31589 27.0823 8.21907 26.8071C8.1449 26.5478 8.10822 26.2793 8.11015 26.0097C8.11015 25.8969 8.16663 25.6713 8.01199 25.6485C7.99316 25.4203 8.2379 24.9531 8.10612 24.7705C7.89769 24.8766 8.05636 24.4939 8.08057 24.4268C8.13839 24.2751 8.34009 23.871 8.26748 23.7166C8.22041 23.7475 8.18411 23.7945 8.13301 23.7985C8.10343 23.581 8.28899 23.2964 8.35757 23.0923C8.40598 22.9513 8.56062 22.7433 8.52835 22.5915C8.42212 22.5741 8.4006 22.6855 8.31589 22.7258C8.13435 22.5727 8.87797 21.6451 8.98823 21.5175C9.76412 20.6543 10.6153 20.1454 11.8121 20.1011C11.9183 20.1011 12.0676 20.0823 12.1214 20.0139C12.4199 19.6232 13.146 19.8165 13.575 19.7548C13.7726 19.7266 13.9636 19.6299 14.1599 19.6205C14.5553 19.6044 14.5633 19.9024 14.7731 20.1575C14.9076 20.3159 15.0864 20.4032 15.2249 20.5348C15.2669 20.575 15.2997 20.6239 15.321 20.678C15.3422 20.7321 15.3515 20.7902 15.3482 20.8482C15.3449 20.9063 15.329 20.9629 15.3017 21.0142C15.2744 21.0656 15.2363 21.1104 15.19 21.1456C15.0246 21.2866 14.7341 21.343 14.5311 21.3967C14.305 21.449 14.0936 21.5513 13.9125 21.6961C13.7748 21.8296 13.6254 21.9504 13.4661 22.0572C13.307 22.1222 13.1533 22.1994 13.0062 22.2881Z" fill="#1F515B"/>
<path d="M21.0541 22.4121C21.1079 22.4121 21.0434 22.5396 21.0299 22.5584C20.9879 22.6096 20.9391 22.6548 20.8847 22.6927C20.7109 22.8376 20.5806 23.0276 20.5082 23.2418C20.4446 23.3813 20.4128 23.5331 20.4151 23.6863C20.4175 23.8396 20.4538 23.9904 20.5216 24.1279C20.5858 24.2705 20.6657 24.4055 20.7596 24.5306C20.825 24.6068 20.8714 24.6974 20.8947 24.795C20.9181 24.8926 20.9179 24.9943 20.8941 25.0918C20.8345 25.3264 20.8448 25.5732 20.9237 25.802C20.9479 25.8586 20.9826 25.91 21.0259 25.9537C21.0592 25.9903 21.0822 26.035 21.0929 26.0833C21.1035 26.1316 21.1013 26.1818 21.0864 26.2289C21.0676 26.3108 21.0057 26.3162 20.9519 26.2571C20.8458 26.1335 20.7475 26.0035 20.6575 25.8678C20.6212 25.7986 20.6022 25.7217 20.6023 25.6436C20.5916 25.4637 20.6131 25.2798 20.5848 25.1066C20.5217 24.7694 20.3316 24.4692 20.0537 24.2675C19.8802 24.1332 19.7 23.999 19.5373 23.8513C19.4531 23.7816 19.3921 23.688 19.3625 23.5828C19.2886 23.227 19.0384 23.0632 18.7305 22.9545C18.3836 22.831 18.0326 22.7195 17.6897 22.5906C17.2938 22.4554 16.919 22.2651 16.5763 22.0254C16.3934 21.8912 16.1998 21.7663 15.9914 21.6227C15.9801 21.6781 15.9725 21.7341 15.9685 21.7905C15.9607 21.9279 15.9629 22.0656 15.9752 22.2027C15.9964 22.2818 16.032 22.3564 16.0801 22.4228C16.107 22.4738 16.1595 22.5155 16.1729 22.5678C16.1765 22.5922 16.1742 22.6171 16.1662 22.6404C16.1583 22.6638 16.1449 22.6849 16.1272 22.7021C16.1079 22.7103 16.0868 22.7133 16.066 22.7107C16.0452 22.7081 16.0255 22.7 16.0089 22.6873C15.8834 22.5586 15.7717 22.4174 15.6754 22.2658C15.6444 22.1752 15.6444 22.077 15.6754 21.9865C15.7001 21.9 15.7048 21.809 15.6892 21.7204C15.6736 21.6318 15.6381 21.5479 15.5853 21.475C15.5638 21.439 15.5498 21.3991 15.544 21.3576C15.5382 21.3161 15.5408 21.2738 15.5517 21.2333C15.5708 21.1877 15.6066 21.1511 15.6518 21.1309C15.697 21.1107 15.7482 21.1085 15.795 21.1246C15.9914 21.1743 16.1837 21.2454 16.376 21.3099C16.398 21.322 16.4187 21.3364 16.4378 21.3528C16.6624 21.5018 16.657 21.4965 16.7578 21.2494C16.8494 21.0343 16.9531 20.8246 17.0685 20.6211C17.2017 20.3408 17.2671 20.0332 17.2594 19.723C17.2594 19.6706 17.2043 19.6062 17.1586 19.5646C17.0997 19.5241 17.0348 19.4933 16.9663 19.4733C16.9165 19.4531 16.8587 19.4491 16.8103 19.4263C16.7333 19.3704 16.677 19.2906 16.6503 19.1994C16.6289 19.1485 16.6197 19.0933 16.6234 19.0383C16.63 19.0135 16.6444 18.9915 16.6645 18.9756C16.6846 18.9596 16.7093 18.9505 16.735 18.9497C16.7605 18.9497 16.7699 18.9738 16.7915 18.9819C16.8263 18.9895 16.8621 18.9918 16.8977 18.9886C17.0463 18.9916 17.1946 18.9749 17.3388 18.9389C17.4724 18.9203 17.6078 18.9176 17.7422 18.9309C17.804 18.9309 17.8766 18.9577 17.9237 18.9309C18.0153 18.8738 18.0937 18.7978 18.1536 18.708C18.2236 18.5926 18.1362 18.3603 18.0057 18.2636C17.8955 18.1817 17.7771 18.1092 17.6709 18.022C17.5695 17.9419 17.4762 17.8519 17.3925 17.7535C17.3441 17.6957 17.3199 17.5615 17.3925 17.5091C17.4652 17.4568 17.5028 17.5507 17.5163 17.6044C17.5249 17.6666 17.5425 17.7273 17.5687 17.7843C17.5996 17.838 17.6601 17.8716 17.7032 17.8031C17.7284 17.7086 17.7334 17.6098 17.718 17.5132C17.7058 17.4299 17.7151 17.3449 17.7448 17.2661C17.7704 17.2191 17.8161 17.1842 17.8565 17.2339C17.8968 17.2836 17.8766 17.3682 17.8699 17.4219C17.8565 17.5208 17.8565 17.621 17.8699 17.7199C17.8713 17.7664 17.8823 17.8121 17.9022 17.8542C17.9282 17.876 17.9578 17.8933 17.9896 17.9052C18.0272 17.924 18.0447 17.7239 18.0434 17.7038C18.0434 17.6367 18.0434 17.5695 18.12 17.544C18.1967 17.5185 18.2289 17.5991 18.2209 17.6595C18.2052 17.7173 18.184 17.7735 18.1577 17.8273C18.1146 17.9522 18.2047 18.0636 18.2693 18.1643C18.3338 18.265 18.4037 18.2784 18.4548 18.1831C18.4912 18.12 18.5033 18.0314 18.5893 18.0099C18.6982 17.9817 18.7157 18.1227 18.6834 18.1952C18.6337 18.3066 18.5006 18.3496 18.4441 18.4529C18.4024 18.5321 18.3648 18.6154 18.3284 18.6973C18.3069 18.7469 18.2289 18.8597 18.2437 18.9134C18.2585 18.9671 18.3069 18.9215 18.3405 18.9054C18.3742 18.8893 18.4266 18.8718 18.475 18.8557C18.4952 18.8476 18.5006 18.8356 18.518 18.8557C18.5638 18.9013 18.475 18.9899 18.4522 19.0316C18.4136 19.1014 18.3531 19.1566 18.28 19.1886C18.2262 19.2128 18.1536 19.2705 18.1456 19.3229C18.0984 19.6872 18.0719 20.0538 18.0662 20.4211C18.0662 20.9514 18.3486 21.3421 18.7897 21.6294C19.14 21.8664 19.5291 22.0404 19.9394 22.1436C20.246 22.2147 20.4383 22.6685 20.8094 22.5866C20.8606 22.5741 20.9096 22.5537 20.9546 22.5262C20.977 22.5125 20.9978 22.4963 21.0165 22.4779C21.0313 22.4618 21.0367 22.4336 21.0595 22.4282L21.0541 22.4121Z" fill="#1F515B"/>
<path d="M21.1904 25.2609C21.2085 25.2782 21.2256 25.2966 21.2415 25.316C21.3329 25.4288 21.2831 25.5697 21.2818 25.7013C21.2804 25.8329 21.3947 25.802 21.4243 25.6852C21.4403 25.6175 21.438 25.5468 21.4177 25.4803C21.3974 25.4138 21.3598 25.3539 21.3087 25.3066C21.2596 25.2698 21.2145 25.228 21.1742 25.1817C21.1567 25.1562 21.1029 25.0636 21.1272 25.0327C21.1118 25.049 21.1003 25.0686 21.0935 25.09C21.0868 25.1114 21.0849 25.134 21.0882 25.1562C21.0643 25.1555 21.041 25.1634 21.0225 25.1785C21.004 25.1935 20.9915 25.2147 20.9873 25.2381C21.0384 25.1495 21.1245 25.2046 21.1904 25.2609Z" fill="#1F515B"/>
<path d="M21.5005 7.00928C21.3795 7.04016 21.2181 7.13011 21.1482 7.14354C20.9707 7.18247 20.7125 7.06164 20.5781 7.22812C20.4153 7.09386 20.0402 6.95961 19.8694 7.1677C19.8129 7.23617 19.8291 7.27779 19.9259 7.28719C19.985 7.2939 20.0415 7.23617 20.0993 7.22812C20.1812 7.22221 20.2627 7.24397 20.3306 7.28987C20.4651 7.36506 20.57 7.47515 20.7018 7.55838C20.8315 7.61957 20.9738 7.64946 21.1173 7.64565C21.1616 7.64565 21.3755 7.62282 21.3674 7.54361C21.3674 7.51139 21.1724 7.54361 21.1307 7.52885C21.0581 7.51139 20.9156 7.46977 20.8994 7.37982C20.8779 7.26302 21.0433 7.28987 21.1065 7.30867C21.3002 7.36774 21.5341 7.42279 21.6202 7.19321C21.6874 7.00526 21.6121 6.98243 21.5005 7.00928Z" fill="#1F515B"/>
<path d="M23.7799 27.1548C23.7342 27.2058 23.831 27.3361 23.8512 27.3817C23.8895 27.4655 23.9214 27.5521 23.9466 27.6408C23.9958 27.8108 24.0077 27.9894 23.9816 28.1644C23.9238 28.547 23.1842 29.4868 22.7243 29.1445C22.5764 29.3579 22.3868 29.5848 22.1232 29.2962C22.0143 29.5942 21.6687 29.5083 21.4737 29.3458C21.2384 29.6895 20.8807 29.4479 20.6185 29.315C20.4155 29.5835 20.3966 29.4841 20.0887 29.3821C19.8292 29.2948 19.8198 29.5069 19.61 29.5163C19.5024 29.5163 19.3733 29.3821 19.2469 29.417C19.1205 29.4519 19.0829 29.5727 18.9605 29.6117C18.8381 29.6506 18.7265 29.6117 18.6109 29.6439C18.4952 29.6761 18.3863 29.7781 18.2478 29.7996C17.9668 29.852 17.7261 29.9446 17.441 30.0238C16.9905 30.1581 16.6207 30.2091 16.2308 29.8896C16.1574 29.8426 16.0752 29.811 15.9892 29.797C15.9031 29.7829 15.8151 29.7865 15.7306 29.8077C15.486 29.885 15.2279 29.91 14.9731 29.8811C14.7182 29.8522 14.4723 29.77 14.2514 29.6399C14.0322 29.5249 13.7876 29.4668 13.5401 29.4707C13.4926 29.4698 13.4455 29.4783 13.4013 29.4956C13.3572 29.513 13.3169 29.5389 13.2828 29.5718C13.2487 29.6047 13.2214 29.644 13.2026 29.6875C13.1837 29.731 13.1737 29.7778 13.173 29.8251C13.1717 29.8734 13.182 29.9212 13.2031 29.9647C13.2241 30.0081 13.2553 30.0459 13.294 30.0748C13.3209 30.1003 13.5979 30.2252 13.5898 30.197C13.5841 30.1524 13.5841 30.1073 13.5898 30.0628C13.7243 30.0413 13.696 30.2225 13.7982 30.2279C13.7881 30.1966 13.7871 30.1632 13.7952 30.1314C13.8032 30.0995 13.8202 30.0706 13.844 30.048C13.8655 30.1353 13.9206 30.2802 14.0134 30.2856C14.0057 30.257 14.0059 30.2269 14.0143 30.1985C14.0226 30.17 14.0385 30.1445 14.0605 30.1245C14.1774 30.2346 14.2124 30.346 14.3738 30.4078C14.5351 30.4695 14.7073 30.4669 14.8673 30.5273C15.0851 30.6105 15.3191 30.6615 15.5396 30.7206C15.5786 30.7313 15.619 30.7394 15.6364 30.7931C15.3378 30.8587 15.035 30.9036 14.7301 30.9274C14.5445 30.9394 14.2501 31.0536 14.0712 30.9743C14.0201 30.9515 13.8184 30.6588 13.8305 30.9233C13.8305 30.8669 13.5764 30.7031 13.5051 30.7475C13.38 30.824 13.3881 31.1824 13.458 31.2845C13.5717 31.4117 13.7302 31.4901 13.9004 31.5033C14.4007 31.5677 14.9063 31.5798 15.4051 31.6443C15.709 31.6832 16.0008 31.7987 16.3034 31.8537C16.7902 31.9437 17.281 32.0108 17.7691 32.09C17.8266 32.1044 17.8832 32.1224 17.9385 32.1437C17.5997 32.4122 17.086 32.184 16.8547 32.631L17.0726 32.6727L16.9542 32.8069C17.1734 33.0754 17.4155 33.0284 17.6898 32.8808C17.9416 32.7445 18.2043 32.6291 18.4751 32.5357C18.7104 32.4538 18.8408 32.3263 18.8502 32.0766C18.8548 32.0374 18.8684 31.9999 18.8902 31.967C18.9119 31.9341 18.941 31.9068 18.9753 31.8873C19.4316 31.762 19.8897 31.6483 20.3496 31.5463C20.395 31.5348 20.4422 31.5327 20.4885 31.5401C20.5347 31.5474 20.579 31.5642 20.6185 31.5892C20.7933 31.7423 20.7328 31.8967 20.5136 31.992C20.3941 32.0479 20.2908 32.1334 20.2138 32.2404C20.1438 32.3317 20.1949 32.388 20.2985 32.4766C20.5311 32.6794 20.7019 32.5666 20.9022 32.4592C21.0448 32.3827 21.19 32.3102 21.3285 32.2242C21.3663 32.208 21.4002 32.1841 21.4281 32.1539C21.456 32.1238 21.4773 32.0882 21.4906 32.0494C21.5039 32.0106 21.5089 31.9694 21.5053 31.9285C21.5017 31.8877 21.4896 31.848 21.4697 31.8121C21.4473 31.7749 21.4331 31.7334 21.4278 31.6903C21.4225 31.6473 21.4263 31.6036 21.4389 31.5621C21.4516 31.5206 21.4729 31.4822 21.5013 31.4494C21.5298 31.4166 21.5648 31.3902 21.6042 31.3717C22.0721 31.067 22.5455 30.7582 23.0269 30.487C23.5365 30.2051 24.034 29.9245 24.3447 29.4036C24.8207 28.598 24.6499 27.6744 23.9332 27.2058C23.9009 27.1843 23.827 27.1266 23.7987 27.1535L23.7799 27.1548Z" fill="#1F515B"/>
<path d="M16.2575 19.3135C16.2212 19.0652 15.9885 19.045 15.8151 19.0383L15.8379 19.0222C16.0275 18.8785 16.1902 18.5067 15.9374 18.3509C15.8885 18.3168 15.8281 18.303 15.7691 18.3125C15.7101 18.322 15.6572 18.3541 15.6214 18.4019C15.5816 18.4527 15.5498 18.5093 15.5273 18.5698C15.5071 18.6181 15.4977 18.704 15.4641 18.7376C15.4251 18.6731 15.4265 18.5859 15.3727 18.5187C15.3258 18.4607 15.2618 18.4189 15.1898 18.3993C15.1099 18.3803 15.0259 18.3886 14.9511 18.4226C14.8764 18.4566 14.8151 18.5145 14.777 18.5872C14.7443 18.65 14.7324 18.7215 14.743 18.7915C14.7537 18.8615 14.7863 18.9263 14.8361 18.9765C14.8903 19.0359 14.9575 19.0818 15.0325 19.1108C14.8644 19.1403 14.6855 19.2289 14.7797 19.4344C14.795 19.4697 14.8191 19.5006 14.8497 19.5241C14.8802 19.5476 14.9163 19.5629 14.9545 19.5686C15.0365 19.5807 15.2234 19.5216 15.2476 19.4344C15.229 19.4872 15.2231 19.5438 15.2305 19.5993C15.2378 19.6549 15.2581 19.708 15.2898 19.7542C15.3215 19.8005 15.3636 19.8387 15.4128 19.8657C15.462 19.8927 15.5169 19.9077 15.573 19.9096C15.842 19.8975 15.7075 19.6116 15.6846 19.4679C15.8568 19.6747 16.3113 19.6693 16.2575 19.3135ZM15.6214 19.2007C15.5529 19.3417 15.2759 19.3202 15.3915 19.1269C15.403 19.1092 15.4175 19.0938 15.4345 19.0813C15.5313 19.0115 15.6927 19.0544 15.6214 19.2007Z" fill="#1F515B"/>
<path d="M15.6624 7.85208C15.6638 7.86983 15.6603 7.88761 15.6522 7.90349C15.6441 7.91936 15.6318 7.9327 15.6167 7.94204C15.4887 8.03004 15.3817 8.14509 15.3033 8.27901C15.2603 8.35151 15.2711 8.41327 15.3491 8.44012C15.4235 8.46265 15.5001 8.47705 15.5777 8.48308C15.7726 8.50993 15.9703 8.57706 15.7484 8.78112C15.6772 8.84691 15.2832 8.9382 15.3638 9.07246C15.4607 9.23088 15.817 9.08185 15.9528 9.04829C16.1855 8.9919 16.3468 8.75159 16.5821 8.72205C16.7969 8.70459 17.0128 8.70459 17.2276 8.72205C17.2754 8.72589 17.3218 8.73984 17.3638 8.76299C17.4057 8.78614 17.4423 8.81795 17.471 8.85631C17.534 8.93383 17.6135 8.99636 17.7038 9.03933C17.794 9.08229 17.8927 9.10462 17.9927 9.10468C18.1501 9.11273 18.4499 8.93015 18.5145 9.1906C18.5266 9.24027 18.4755 9.35976 18.5225 9.39869C18.6153 9.47388 18.6947 9.26444 18.7041 9.19865C18.7103 9.12669 18.6977 9.05434 18.6675 8.98869C18.6373 8.92304 18.5906 8.86632 18.5319 8.82409C18.4284 8.7489 18.263 8.71534 18.2267 8.5784C18.2799 8.59285 18.3355 8.59626 18.3901 8.58841C18.4447 8.58055 18.4971 8.56161 18.544 8.53275C18.5669 8.5153 18.5925 8.47771 18.618 8.47368C18.6421 8.47806 18.6659 8.48389 18.6893 8.49113C18.7345 8.49368 18.7794 8.48142 18.817 8.45623C18.86 8.43743 18.9085 8.45623 18.9515 8.45623C19.0022 8.45468 19.0521 8.44281 19.0981 8.42132C19.1901 8.38174 19.2646 8.31019 19.3078 8.21994C19.3368 8.24957 19.3719 8.27249 19.4107 8.28711C19.4495 8.30172 19.491 8.30766 19.5324 8.30452C19.6144 8.30452 19.6817 8.24008 19.7556 8.23202C19.7731 8.31929 19.9156 8.3354 19.9856 8.31526C20.0201 8.29917 20.0491 8.27326 20.069 8.24078C20.0888 8.2083 20.0986 8.1707 20.0972 8.13268C20.0994 8.0912 20.0934 8.0497 20.0797 8.0105C20.0407 7.90956 19.9747 7.8213 19.8887 7.75542C19.7324 7.63825 19.5458 7.56793 19.3509 7.5527C19.1034 7.52453 18.8539 7.58443 18.6462 7.72186C18.3437 7.93129 18.1622 8.17698 17.7628 8.04138C17.6961 8.02536 17.6282 8.01548 17.5597 8.01185C17.2101 7.96352 16.8645 8.03601 16.5162 8.04407C16.4195 8.0504 16.3224 8.04453 16.2271 8.02661C16.125 8.00377 16.0316 7.95203 15.9582 7.87759C15.9324 7.85492 15.9118 7.827 15.8977 7.7957C15.8735 7.71649 15.8829 7.51108 15.7632 7.64936C15.7065 7.70282 15.6708 7.77469 15.6624 7.85208Z" fill="#1F515B"/>
<path d="M22.4757 28.7975C22.4515 28.866 22.6976 28.8767 22.7285 28.8646C22.7709 28.8423 22.808 28.8112 22.8374 28.7735C22.8669 28.7358 22.888 28.6923 22.8993 28.6458C23.1091 28.8995 23.3794 28.5666 23.3216 28.3249C23.4843 28.3249 23.5905 28.3008 23.6416 28.1329C23.6846 27.9987 23.6752 27.8228 23.5542 27.749C23.6618 27.6577 23.5918 27.4147 23.4291 27.4456C23.2664 27.4764 23.0257 28.0014 22.9262 28.141C22.8389 28.2729 22.7314 28.3902 22.6075 28.4887C22.5255 28.5491 21.9863 28.7465 22.1759 28.913C22.266 28.9962 22.4421 28.8915 22.4757 28.7975Z" fill="#1F515B"/>
<path d="M15.7746 19.5439C15.8203 19.6943 15.9427 19.8312 15.979 20.0031C16.0074 20.1571 16.0029 20.3154 15.9655 20.4676C15.948 20.5629 15.7988 20.9872 16.0408 20.9348C16.1107 20.8005 16.0032 20.5495 16.1309 20.4434C16.2587 20.3374 16.4523 20.3776 16.5774 20.2743C16.6724 20.185 16.7409 20.0711 16.775 19.9453C16.7103 19.8823 16.6253 19.8443 16.5351 19.8382C16.445 19.832 16.3555 19.8581 16.2829 19.9118C16.1578 20.0111 16.1376 20.1521 16.0852 20.2904C16.0704 20.0769 16.0852 19.8876 15.9722 19.6943C15.9369 19.6325 15.8915 19.5772 15.8378 19.5305C15.788 19.4822 15.6428 19.4593 15.7746 19.5439Z" fill="#1F515B"/>
<path d="M25.0143 27.2309C24.6661 27.6028 24.7979 28.7386 25.6235 28.4701C26.2205 28.2754 25.9771 27.4256 25.5052 27.1893C25.2846 27.0792 25.1219 27.1155 25.0143 27.2309Z" fill="#1F515B"/>
<path d="M27.4355 23.022C27.3104 23.0784 27.301 23.2194 27.2634 23.3926C27.2109 23.6611 27.1665 23.7121 26.9178 23.6611C26.7067 23.6181 26.4767 23.5443 26.4055 23.8141C26.3059 24.1954 26.5843 24.1565 26.8371 24.2666C27.2862 24.4639 26.7026 24.9553 27.1155 25.1419C27.2687 25.2117 27.4301 25.2668 27.5619 25.1419C27.6937 25.017 27.6251 24.7808 27.7367 24.6626C27.9357 24.4545 28.2947 24.8237 28.4252 24.4881C28.4669 24.382 28.5032 24.1457 28.4252 24.0477C28.2988 23.8839 28.0352 24.0276 27.8967 23.845C27.7582 23.6624 28.0312 23.3966 28.0016 23.1979C27.972 22.9992 27.6009 22.9468 27.4355 23.022Z" fill="#1F515B"/>
<path d="M16.8055 9.23343C16.8034 9.23656 16.8006 9.23916 16.7973 9.24103C16.7941 9.24289 16.7904 9.24397 16.7866 9.24417C16.7665 9.24417 16.7409 9.22404 16.7221 9.21732C16.4787 9.13946 16.3026 9.3019 16.2568 9.5449C16.2111 9.7879 16.2757 10.0819 16.5177 10.2081L16.5419 10.2202C16.5639 10.2294 16.5879 10.2327 16.6115 10.2296C16.6351 10.2266 16.6575 10.2173 16.6764 10.2027C16.7423 10.1652 16.7571 10.1866 16.8108 10.2242C16.8673 10.2525 16.9314 10.2619 16.9936 10.251C17.0559 10.2401 17.1129 10.2096 17.1564 10.1638C17.2323 10.1065 17.2954 10.034 17.3417 9.95107C17.388 9.8681 17.4165 9.77641 17.4254 9.68184C17.4373 9.58398 17.418 9.48485 17.3702 9.39857C17.3266 9.32846 17.2578 9.27758 17.1779 9.25626C17.1437 9.24632 17.1086 9.23958 17.0731 9.23612C17.0515 9.23612 16.9816 9.26163 17.0072 9.21732C17.0227 9.19846 17.0393 9.18053 17.0569 9.16362C17.0838 9.13006 17.108 9.08441 17.0569 9.06964C17.0327 9.06674 17.0082 9.07297 16.9883 9.0871C16.9682 9.09918 16.952 9.12603 16.9346 9.13677C16.9171 9.14751 16.9251 9.14617 16.9144 9.12737C16.9092 9.11544 16.906 9.10274 16.905 9.08978C16.9001 9.04624 16.8873 9.00394 16.8673 8.96493C16.8364 8.91525 16.7329 8.84141 16.6965 8.92599C16.6602 9.01057 16.7275 9.08441 16.7745 9.14751C16.7813 9.16899 16.8203 9.21195 16.8055 9.23343Z" fill="#1F515B"/>
<path d="M12.0967 27.4395C12.0147 27.3668 11.9145 27.3177 11.8067 27.2974C11.699 27.2771 11.5877 27.2863 11.4848 27.3241C11.3611 27.3582 11.2475 27.4219 11.1538 27.5096C11.0601 27.5973 10.9891 27.7064 10.947 27.8275C10.9043 27.9633 10.8996 28.1081 10.9335 28.2464C10.9638 28.3601 11.0204 28.465 11.0989 28.5527C11.1774 28.6405 11.2756 28.7084 11.3853 28.7512C11.5021 28.7881 11.6257 28.7979 11.7469 28.78C11.868 28.7621 11.9835 28.7169 12.0846 28.6478C12.1718 28.5784 12.2422 28.4902 12.2904 28.3897C12.3387 28.2893 12.3634 28.1792 12.3629 28.0678C12.3629 28.0571 12.3629 28.0477 12.3629 28.0369C12.3628 27.9243 12.3391 27.8129 12.2932 27.71C12.2474 27.6071 12.1804 27.515 12.0967 27.4395ZM12.0577 27.8423C12.034 27.8975 11.9987 27.9469 11.9541 27.9873C11.8735 28.0772 11.7955 28.1739 11.7094 28.2558C11.6822 28.2922 11.6455 28.3205 11.6033 28.3375C11.5611 28.3546 11.515 28.3597 11.47 28.3524C11.4345 28.3409 11.4019 28.3216 11.3746 28.2961C11.3114 28.237 11.2159 28.0839 11.3154 28.0128C11.3853 27.9631 11.4418 28.0974 11.4929 28.1242C11.7242 28.2437 11.7793 27.6288 11.9851 27.7376C12.0214 27.759 12.0657 27.7939 12.0577 27.8382V27.8423Z" fill="#1F515B"/>
<path d="M27.2885 20.9505C27.2702 21.047 27.2422 21.1414 27.2051 21.2324C27.1598 21.3299 27.1372 21.4364 27.1392 21.5439C27.1258 21.6175 27.106 21.6898 27.0801 21.76C27.0681 21.7998 27.0609 21.8408 27.0586 21.8822C27.0514 22.0646 26.9854 22.2398 26.8703 22.3816C26.8419 22.4186 26.8041 22.4474 26.7609 22.4649C26.7176 22.4823 26.6704 22.4879 26.6242 22.481C26.6041 22.481 26.5718 22.4581 26.5704 22.4447C26.5691 22.4144 26.5782 22.3846 26.596 22.3601C26.6245 22.3348 26.6551 22.3118 26.6874 22.2917C26.724 22.2648 26.7547 22.2309 26.7778 22.1919C26.8009 22.1529 26.8159 22.1097 26.8219 22.0648C26.8392 21.9385 26.8735 21.8152 26.9241 21.6983C26.94 21.6465 26.9477 21.5926 26.9469 21.5385C26.9469 21.4741 26.9469 21.4042 26.9577 21.3425C26.9671 21.2485 26.9806 21.1545 26.994 21.0619C27.0014 21.0163 27.0126 20.9714 27.0276 20.9276C27.0567 20.7805 27.0657 20.6301 27.0545 20.4806C27.0545 20.3691 27.0707 20.2577 27.0801 20.1463C27.0995 20.0238 27.0827 19.8982 27.0317 19.7851C26.9779 19.6842 26.9191 19.5861 26.8555 19.4911C26.8249 19.4447 26.8086 19.3903 26.8086 19.3347C26.8086 19.2791 26.8249 19.2247 26.8555 19.1783C26.9358 19.0218 26.9577 18.842 26.9174 18.6708C26.8937 18.3132 26.8937 17.9544 26.9174 17.5968C26.8978 17.3414 26.9019 17.0848 26.9295 16.8302C26.9765 16.5778 27.1083 16.3415 27.0841 16.077C27.072 15.9765 27.036 15.8803 26.9792 15.7964C26.9402 15.7333 26.908 15.6622 26.8676 15.6045C26.8493 15.5821 26.8251 15.5653 26.7977 15.5561C26.7237 15.5355 26.6559 15.4973 26.6 15.4447C26.5874 15.4327 26.5783 15.4174 26.5737 15.4006C26.5692 15.3837 26.5693 15.366 26.5742 15.3492C26.579 15.3325 26.5884 15.3174 26.6012 15.3056C26.6141 15.2937 26.63 15.2857 26.6471 15.2822C26.6811 15.274 26.7165 15.2732 26.7509 15.2799C26.7852 15.2866 26.8177 15.3007 26.8461 15.3212C26.9664 15.3981 27.1066 15.4382 27.2495 15.4366C27.3039 15.4442 27.3548 15.4676 27.3961 15.5038C27.4271 15.5301 27.4651 15.5468 27.5055 15.5518C27.5459 15.5568 27.5868 15.5499 27.6233 15.532C27.6704 15.5145 27.6583 15.4917 27.6852 15.4554C27.6959 15.4401 27.7122 15.4297 27.7306 15.4264C27.7491 15.4231 27.768 15.4273 27.7833 15.438C27.7987 15.4487 27.8091 15.465 27.8124 15.4834C27.8157 15.5017 27.8115 15.5207 27.8008 15.536C27.7699 15.5843 27.6919 15.5642 27.6664 15.6098C27.6408 15.6555 27.7107 15.7293 27.747 15.7575C27.7838 15.7828 27.8274 15.7963 27.8721 15.7964C27.9084 15.7964 27.9541 15.7803 27.9797 15.8193C27.985 15.8286 27.9881 15.839 27.9888 15.8497C27.9895 15.8603 27.9878 15.8711 27.9838 15.881C27.9798 15.8909 27.9736 15.8998 27.9657 15.9071C27.9577 15.9143 27.9483 15.9196 27.938 15.9226C27.8788 15.9414 27.8035 15.8824 27.7336 15.8757C27.5749 15.8595 27.4983 15.9186 27.4768 16.073C27.4512 16.2502 27.4257 16.4261 27.4122 16.6033C27.3858 16.9702 27.393 17.3387 27.4337 17.7042C27.431 17.8618 27.4598 18.0183 27.5184 18.1647C27.583 18.2761 27.6892 18.3244 27.7497 18.4587C27.8178 18.6376 27.917 18.803 28.0429 18.9474C28.1386 19.0427 28.2531 19.1172 28.379 19.1662C28.629 19.2615 28.8548 19.4104 29.0406 19.6025C29.1083 19.691 29.1544 19.7939 29.1751 19.9033C29.2152 20.0855 29.2373 20.2712 29.241 20.4577C29.2525 20.5652 29.27 20.6718 29.2934 20.7773C29.2934 20.7773 29.2934 20.7934 29.3028 20.7961C29.3372 20.8248 29.3635 20.8619 29.3792 20.9038C29.395 20.9456 29.3997 20.9908 29.3929 21.035C29.3929 21.1478 29.3929 21.2619 29.3929 21.3747C29.3943 21.3924 29.3906 21.4101 29.3822 21.4257C29.3714 21.4418 29.3526 21.4633 29.3365 21.4633C29.3203 21.4633 29.2975 21.4459 29.2867 21.4297C29.2737 21.4071 29.2659 21.3819 29.2639 21.3559C29.2491 21.2458 29.2396 21.1371 29.2262 21.027C29.2141 20.9411 29.202 20.8551 29.1885 20.7692C29.1751 20.6833 29.1549 20.6081 29.1442 20.5276C29.1173 20.3329 29.0958 20.1396 29.0702 19.9449C29.0702 19.9274 29.0541 19.9127 29.046 19.8952C29.0366 19.9127 29.0205 19.9274 29.0178 19.9449C28.9989 20.0912 28.9788 20.2362 28.9653 20.3826C28.9471 20.5289 28.9753 20.6773 29.046 20.8068C29.0729 20.8551 29.1159 20.8941 29.1469 20.9411C29.1596 20.9631 29.1666 20.9881 29.167 21.0136C29.1753 21.2143 29.1682 21.4154 29.1455 21.615C29.1274 21.7961 29.1193 21.9781 29.1213 22.1601C29.1191 22.2054 29.1072 22.2497 29.0862 22.29C29.0652 22.3302 29.0358 22.3655 28.9999 22.3933C28.964 22.4211 28.9225 22.4408 28.8782 22.4511C28.8339 22.4614 28.788 22.4619 28.7435 22.4528C28.7286 22.4483 28.7145 22.4415 28.7018 22.4326C28.6534 22.3977 28.6534 22.3762 28.7085 22.3561C28.7819 22.3288 28.8452 22.2797 28.8897 22.2153C28.9342 22.151 28.9578 22.0745 28.9573 21.9963C28.9653 21.9037 28.9667 21.811 28.9667 21.7184C28.9667 21.5841 28.9586 21.4351 28.9667 21.2941C28.9699 21.2065 28.9444 21.1203 28.8941 21.0485L28.7717 20.8686H28.7569C28.7594 20.9006 28.7639 20.9324 28.7704 20.9639C28.7838 21.0136 28.804 21.0632 28.8161 21.1129C28.8353 21.2553 28.7987 21.3996 28.7139 21.5157C28.6238 21.6781 28.5377 21.8432 28.4584 22.0124C28.4232 22.1001 28.3932 22.1898 28.3683 22.2809C28.3574 22.3147 28.3399 22.3459 28.3168 22.3729C28.2937 22.3998 28.2655 22.422 28.2338 22.438C28.1497 22.4796 28.0625 22.5146 27.9729 22.5427C27.965 22.5469 27.9563 22.5494 27.9474 22.5502C27.9385 22.5509 27.9295 22.5499 27.921 22.5471C27.9125 22.5444 27.9046 22.54 27.8978 22.5341C27.891 22.5283 27.8855 22.5212 27.8815 22.5132C27.8627 22.4702 27.8923 22.4434 27.9205 22.4205C27.9756 22.3749 28.0294 22.3279 28.0872 22.2863C28.1552 22.2314 28.2068 22.159 28.2365 22.0769C28.2822 21.9788 28.3306 21.8835 28.3777 21.7869C28.4893 21.588 28.539 21.3603 28.5202 21.133C28.5123 21.0833 28.4973 21.035 28.4759 20.9894C28.4207 20.8659 28.3616 20.7437 28.3024 20.6215C28.2782 20.5719 28.2446 20.5262 28.2217 20.4765C28.1952 20.4202 28.1732 20.3618 28.1558 20.302C28.1383 20.2362 28.1074 20.2053 28.0415 20.2174C27.8729 20.2387 27.7019 20.231 27.5359 20.1946C27.505 20.1946 27.4821 20.1946 27.4808 20.2295C27.4734 20.2991 27.4707 20.369 27.4727 20.439C27.4792 20.5334 27.4904 20.6275 27.5063 20.7209C27.5332 20.88 27.5332 21.0424 27.5063 21.2015C27.4958 21.341 27.509 21.4813 27.5453 21.6164C27.5815 21.7693 27.5938 21.9269 27.5816 22.0836C27.5654 22.1326 27.5442 22.1798 27.5184 22.2245C27.5047 22.2557 27.5 22.2902 27.505 22.3239C27.5158 22.3856 27.505 22.4286 27.4364 22.4393C27.3793 22.4467 27.3214 22.4467 27.2643 22.4393C27.2509 22.4351 27.2387 22.4278 27.2287 22.418C27.2187 22.4082 27.211 22.3962 27.2065 22.383C27.2065 22.3668 27.2293 22.3333 27.2495 22.3225C27.3051 22.2943 27.3483 22.2465 27.3705 22.1883C27.4017 22.1236 27.4143 22.0516 27.4068 21.9802C27.4028 21.931 27.4028 21.8817 27.4068 21.8325C27.4067 21.637 27.3827 21.4423 27.3356 21.2525C27.3248 21.1854 27.314 21.1183 27.3019 21.0511C27.3046 21.0162 27.2966 20.984 27.2885 20.9505Z" fill="#1F515B"/>
<path d="M25.976 26.0282C25.8414 26.0046 25.7167 25.9417 25.6179 25.8474C25.5191 25.753 25.4505 25.6316 25.4208 25.4983C25.3911 25.3651 25.4017 25.226 25.4512 25.0988C25.5006 24.9715 25.5868 24.8618 25.6988 24.7834C25.8108 24.7051 25.9435 24.6616 26.0802 24.6586C26.2169 24.6556 26.3514 24.6931 26.4667 24.7664C26.582 24.8398 26.673 24.9456 26.7281 25.0705C26.7832 25.1955 26.7999 25.3339 26.7761 25.4684C26.7443 25.6485 26.6422 25.8086 26.4921 25.9136C26.3421 26.0186 26.1565 26.0598 25.976 26.0282ZM26.1549 25.0106C26.0884 24.9994 26.02 25.008 25.9584 25.0354C25.8968 25.0629 25.8446 25.1078 25.8085 25.1647C25.7723 25.2215 25.7538 25.2878 25.7551 25.3551C25.7565 25.4224 25.7777 25.4879 25.8162 25.5432C25.8546 25.5986 25.9085 25.6414 25.9712 25.6663C26.0339 25.6912 26.1025 25.697 26.1686 25.6832C26.2346 25.6693 26.295 25.6363 26.3423 25.5883C26.3897 25.5403 26.4217 25.4794 26.4346 25.4133C26.4431 25.3685 26.4426 25.3224 26.4331 25.2778C26.4236 25.2332 26.4053 25.1909 26.3793 25.1534C26.3532 25.1159 26.32 25.084 26.2815 25.0595C26.2429 25.0349 26.1999 25.0183 26.1549 25.0106Z" fill="#1F515B"/>
<path d="M26.6578 26.4002C26.6127 26.392 26.5726 26.3665 26.5462 26.3291L26.2584 25.9196C26.2362 25.8818 26.229 25.837 26.2384 25.7942C26.2477 25.7514 26.2728 25.7137 26.3087 25.6885C26.3446 25.6633 26.3886 25.6525 26.4321 25.6583C26.4756 25.664 26.5154 25.6859 26.5435 25.7195L26.8299 26.129C26.8431 26.1476 26.8525 26.1686 26.8575 26.1908C26.8625 26.213 26.8631 26.236 26.8593 26.2585C26.8554 26.2809 26.8471 26.3024 26.8349 26.3216C26.8227 26.3409 26.8069 26.3576 26.7882 26.3707C26.7503 26.3971 26.7034 26.4077 26.6578 26.4002Z" fill="#1F515B"/>
<path d="M26.2316 14.0444C26.2128 14.0153 26.2016 13.9821 26.199 13.9476C26.1964 13.9131 26.2026 13.8785 26.2168 13.847C26.224 13.8356 26.2298 13.8235 26.2343 13.8108C26.2363 13.7929 26.2363 13.7749 26.2343 13.7571H26.1886L26.2249 13.7114C26.2468 13.6881 26.2635 13.6603 26.2737 13.6299C26.2839 13.5996 26.2874 13.5674 26.2841 13.5356C26.282 13.5272 26.282 13.5184 26.2841 13.5101C26.2992 13.3972 26.278 13.2825 26.2235 13.1825C26.2093 13.1388 26.1994 13.0938 26.194 13.0482C26.1872 12.9985 26.1671 12.9636 26.1375 12.961C26.1079 12.9583 26.0783 12.9878 26.0702 13.0388C26.0537 13.136 26.0439 13.2343 26.0407 13.3328C26.0344 13.5922 26.0119 13.8509 25.9734 14.1075C25.96 14.2122 25.9533 14.3196 25.9331 14.423C25.9129 14.5145 25.8855 14.6043 25.8511 14.6915C25.842 14.7198 25.8263 14.7455 25.8052 14.7665C25.7842 14.7876 25.7584 14.8033 25.73 14.8123C25.6655 14.8338 25.6211 14.7949 25.6386 14.7291C25.6483 14.6895 25.6647 14.6518 25.687 14.6176C25.7966 14.4501 25.8593 14.2564 25.8685 14.0565C25.886 13.9074 25.9048 13.7571 25.9196 13.6067C25.9362 13.4515 25.9394 13.2952 25.9291 13.1395C25.9131 13.0083 25.9242 12.8753 25.9617 12.7485C25.9991 12.6218 26.0622 12.504 26.1469 12.4025C26.2368 12.2795 26.3518 12.177 26.4844 12.1017C26.5772 12.0561 26.6767 12.0239 26.7735 11.9876C26.8112 11.9728 26.8515 11.9621 26.8892 11.9473C26.9098 11.9405 26.9293 11.9305 26.947 11.9178C26.9612 11.9073 26.9717 11.8924 26.9768 11.8755C26.9818 11.8586 26.9813 11.8404 26.9752 11.8238C26.9707 11.8085 26.9609 11.7952 26.9477 11.7861C26.9345 11.7771 26.9186 11.7729 26.9026 11.7741C26.8421 11.77 26.7816 11.784 26.7291 11.8144C26.6189 11.8789 26.5947 11.8735 26.5046 11.7755C26.4817 11.7486 26.4602 11.7218 26.436 11.6963C26.4266 11.6884 26.4204 11.6773 26.4187 11.6652C26.4169 11.653 26.4197 11.6407 26.4266 11.6305C26.4427 11.6053 26.4575 11.5793 26.471 11.5526C26.481 11.5366 26.4844 11.5174 26.4804 11.4989C26.4708 11.4804 26.4669 11.4595 26.469 11.4387C26.4712 11.418 26.4793 11.3983 26.4925 11.3821C26.525 11.3385 26.5403 11.2845 26.5355 11.2304C26.5367 11.2199 26.539 11.2096 26.5422 11.1995L26.5691 11.225C26.5841 11.2349 26.6016 11.2402 26.6196 11.2402C26.6375 11.2402 26.655 11.2349 26.67 11.225C26.6933 11.2117 26.7188 11.2027 26.7453 11.1982C26.7639 11.1932 26.7812 11.1842 26.7961 11.172C26.8109 11.1597 26.8229 11.1444 26.8313 11.127C26.873 11.0451 26.8959 11.0425 26.9429 11.1203C26.9634 11.1515 26.9905 11.1779 27.0224 11.1974C27.0542 11.2169 27.09 11.2291 27.1272 11.2331C27.2442 11.2573 27.3598 11.2868 27.4741 11.3204C27.5111 11.334 27.5446 11.3555 27.5723 11.3835C27.6274 11.4345 27.6758 11.4922 27.7323 11.5419C27.777 11.5808 27.8134 11.6283 27.8392 11.6816C27.8651 11.7349 27.88 11.7929 27.8829 11.852C27.8963 12.0064 27.9084 12.1595 27.9125 12.3138C27.9145 12.3787 27.909 12.4436 27.8963 12.5072C27.8963 12.5273 27.8762 12.5985 27.9071 12.6119C27.938 12.6253 27.9555 12.5864 27.973 12.5756C27.9873 12.5667 28.0034 12.561 28.0202 12.5592C28.0369 12.5573 28.0539 12.5593 28.0698 12.5649C28.1357 12.5877 28.1263 12.6186 28.0832 12.6589C28.0402 12.6992 27.9488 12.7931 27.8681 12.8039C27.8068 12.8008 27.7462 12.7895 27.6879 12.7703C27.6879 12.7139 27.7094 12.628 27.6677 12.581C27.6677 12.5743 27.6435 12.581 27.6301 12.581C27.6585 12.5564 27.6773 12.5227 27.6835 12.4857C27.6896 12.4487 27.6826 12.4107 27.6637 12.3783C27.6274 12.3998 27.622 12.4374 27.6099 12.4723C27.5926 12.5524 27.5522 12.6257 27.4936 12.6832C27.4351 12.7407 27.361 12.7799 27.2805 12.7958L27.2347 12.8066V13.1019L27.2065 13.0778C27.205 13.1037 27.2088 13.1297 27.2175 13.1541C27.2263 13.1786 27.24 13.201 27.2576 13.2201C27.2576 13.2805 27.2899 13.2281 27.2576 13.2912C27.2441 13.3308 27.2215 13.3666 27.1917 13.3959C27.1527 13.4308 27.1057 13.4537 27.0667 13.4872C27.0277 13.5208 27.0317 13.5436 27.0048 13.557C26.9888 13.564 26.9707 13.5649 26.9541 13.5594C26.9375 13.554 26.9235 13.5426 26.9147 13.5275C26.9001 13.504 26.8947 13.476 26.8994 13.4488C26.9041 13.4216 26.9186 13.397 26.9403 13.3798C27.0048 13.3342 27.0613 13.3087 27.0223 13.2174C26.9811 13.129 26.9649 13.031 26.9752 12.9341C26.9476 12.9357 26.9209 12.9441 26.8974 12.9586C26.8739 12.9732 26.8544 12.9934 26.8408 13.0173C26.8079 13.0731 26.783 13.1332 26.7668 13.1959C26.752 13.2723 26.7412 13.3493 26.7345 13.4268C26.6996 13.3919 26.6834 13.3959 26.6633 13.447C26.6627 13.4537 26.6627 13.4604 26.6633 13.4671C26.6431 13.5632 26.6166 13.6578 26.5839 13.7504C26.5516 13.8618 26.6256 13.9786 26.7453 13.9249C26.7964 13.9021 26.7749 13.886 26.8085 13.8631C26.9147 13.788 26.9134 13.9477 26.8434 14.0055C26.8031 14.039 26.7493 14.0578 26.709 14.0927C26.6686 14.1276 26.6444 14.1773 26.5812 14.1652C26.5066 14.1444 26.4307 14.1287 26.354 14.1182C26.2827 14.0981 26.2612 14.0994 26.2316 14.0444Z" fill="#1F515B"/>
<path d="M14.1495 29.0895C14.3091 29.0895 14.4386 28.96 14.4386 28.8004C14.4386 28.6407 14.3091 28.5112 14.1495 28.5112C13.9898 28.5112 13.8604 28.6407 13.8604 28.8004C13.8604 28.96 13.9898 29.0895 14.1495 29.0895Z" fill="#1F515B"/>
<path d="M13.9332 28.3201C14.029 28.3201 14.1067 28.2424 14.1067 28.1466C14.1067 28.0508 14.029 27.9731 13.9332 27.9731C13.8374 27.9731 13.7598 28.0508 13.7598 28.1466C13.7598 28.2424 13.8374 28.3201 13.9332 28.3201Z" fill="#1F515B"/>
<path d="M14.7457 29.2327C14.8415 29.2327 14.9192 29.155 14.9192 29.0592C14.9192 28.9634 14.8415 28.8857 14.7457 28.8857C14.6499 28.8857 14.5723 28.9634 14.5723 29.0592C14.5723 29.155 14.6499 29.2327 14.7457 29.2327Z" fill="#1F515B"/>
<path d="M13.6393 29.2093C13.7351 29.2093 13.8128 29.1316 13.8128 29.0358C13.8128 28.94 13.7351 28.8623 13.6393 28.8623C13.5435 28.8623 13.4658 28.94 13.4658 29.0358C13.4658 29.1316 13.5435 29.2093 13.6393 29.2093Z" fill="#1F515B"/>
<path d="M14.1319 28.7694L13.6504 28.9871L13.6843 29.0618L14.1658 28.8441L14.1319 28.7694Z" fill="#1F515B"/>
<path d="M14.1652 28.7639L14.1318 28.8389L14.7293 29.1037L14.7626 29.0287L14.1652 28.7639Z" fill="#1F515B"/>
<path d="M13.9901 28.1894L13.9121 28.2148L14.111 28.8232L14.189 28.7978L13.9901 28.1894Z" fill="#1F515B"/>
<path d="M29.2165 19.2458C29.2097 18.9773 29.2447 18.5262 28.9838 18.349C28.7929 18.2147 28.5428 18.2308 28.3464 18.1221C28.259 18.0737 28.1125 17.8938 28.2779 17.8267C28.4016 17.7757 28.5226 17.961 28.6369 17.9301C28.7512 17.8992 28.6369 17.7958 28.575 17.7488C28.365 17.5824 28.1996 17.3665 28.0936 17.1205C28.0057 16.9402 27.9908 16.733 28.052 16.5419C28.138 16.3271 28.3209 16.3137 28.4849 16.4667C28.5441 16.5231 28.6006 16.6131 28.6974 16.5862C28.8816 16.5352 28.7741 16.362 28.6974 16.2882C28.5966 16.1942 28.3438 16.1297 28.3074 15.9874C28.2604 15.8089 28.4016 15.8411 28.5011 15.8961C28.6006 15.9512 28.6598 15.9525 28.6221 15.8344C28.5845 15.7162 28.4379 15.6585 28.3599 15.5968C28.1958 15.4625 28.0251 15.3457 27.8664 15.2074C27.684 15.0616 27.5272 14.8864 27.4025 14.6892C27.3554 14.6033 27.2411 14.2059 27.4361 14.2059C27.5544 14.2059 27.5988 14.4395 27.705 14.4744C27.9914 14.5711 27.6808 13.9589 27.6687 13.885C27.6566 13.8112 27.6687 13.6299 27.7682 13.6997C27.8072 13.7279 27.8018 13.9682 27.9027 13.8958C27.9323 13.8743 27.9121 13.791 27.9027 13.7615C27.8785 13.5937 27.8126 13.4393 27.9148 13.2876C28.0213 13.169 28.1344 13.0564 28.2537 12.9506C28.329 12.862 28.4473 12.7412 28.454 12.623C28.4607 12.5049 28.3545 12.4122 28.4433 12.2981C28.5925 12.1075 28.8373 12.7895 28.8709 12.8741C29.0015 13.2217 29.097 13.5815 29.1559 13.9481C29.2837 14.6892 29.3039 15.4424 29.3657 16.1902C29.4034 16.7874 29.4034 17.3865 29.3657 17.9838C29.3536 18.2523 29.5432 19.2538 29.1775 19.3706C29.1802 19.3196 29.1533 19.2726 29.2165 19.2458Z" fill="#1F515B"/>
<path d="M26.5233 30.5532C26.4448 30.78 26.4313 31.0241 26.4843 31.2581C26.2128 31.2726 25.944 31.1982 25.7188 31.0463C25.4936 30.8944 25.3242 30.6731 25.2364 30.4163C25.153 30.1625 25.1369 29.8403 25.3924 29.6806C25.6479 29.5208 25.8657 29.7531 25.9921 29.9491C25.9753 29.8486 25.9926 29.7453 26.0413 29.6558C26.0901 29.5663 26.1674 29.4956 26.261 29.455C26.5555 29.3516 26.7048 29.6094 26.6994 29.8685C26.6769 30.1045 26.6175 30.3356 26.5233 30.5532Z" fill="#1F515B"/>
<path d="M27.0531 32.1865C27.0168 32.1476 26.9187 32.0778 26.9066 32.0281C26.8824 31.9489 26.9671 31.9234 27.0316 31.9422C27.0841 31.966 27.1349 31.9934 27.1836 32.0241C27.2372 32.044 27.2947 32.0513 27.3517 32.0456C27.4592 32.0456 27.5601 32.0456 27.6636 32.055C27.7672 32.0644 27.7295 32.0295 27.6865 31.957C27.5906 31.7389 27.5749 31.4941 27.6421 31.2656C27.7044 31.0424 27.8484 30.8507 28.0455 30.7285C28.1611 30.6529 28.293 30.6058 28.4304 30.591C28.5678 30.5762 28.7067 30.5942 28.8357 30.6434C28.9648 30.6927 29.0803 30.7719 29.1727 30.8745C29.2651 30.977 29.3319 31.1 29.3674 31.2333C29.3919 31.3173 29.3961 31.406 29.3795 31.4919C29.3629 31.5778 29.326 31.6585 29.2719 31.7274C29.2204 31.7912 29.1501 31.8373 29.0711 31.8593C28.992 31.8813 28.908 31.8781 28.8309 31.8502C28.7537 31.8222 28.6872 31.7709 28.6407 31.7034C28.5942 31.6359 28.5699 31.5556 28.5713 31.4737C28.5703 31.4457 28.5775 31.4181 28.5921 31.3942C28.6066 31.3703 28.628 31.3513 28.6533 31.3394C28.6765 31.3288 28.7026 31.3266 28.7271 31.3333C28.7517 31.3399 28.7732 31.3549 28.7878 31.3756C28.812 31.4159 28.7999 31.4293 28.7878 31.4656C28.7878 31.4656 28.7421 31.5287 28.7623 31.5314C28.8443 31.5435 28.8873 31.4481 28.8671 31.3824C28.8523 31.3428 28.8256 31.3087 28.7908 31.2847C28.7559 31.2606 28.7145 31.2479 28.6722 31.2481C28.6292 31.2465 28.5868 31.2587 28.5513 31.2828C28.5157 31.307 28.4888 31.3419 28.4745 31.3824C28.443 31.4687 28.4391 31.5626 28.4631 31.6513C28.4872 31.74 28.5381 31.8191 28.609 31.8778C28.6668 31.9292 28.7344 31.9686 28.8077 31.9935C28.8811 32.0184 28.9587 32.0283 29.0359 32.0227C29.1132 32.017 29.1885 31.996 29.2575 31.9607C29.3264 31.9254 29.3876 31.8767 29.4373 31.8173C29.6242 31.6119 29.6148 31.381 29.5112 31.1461C29.4807 31.0918 29.447 31.0394 29.4104 30.989C29.4054 30.9818 29.402 30.9737 29.4004 30.9652C29.3987 30.9566 29.399 30.9478 29.401 30.9393C29.4063 30.9307 29.4133 30.9232 29.4216 30.9174C29.43 30.9116 29.4394 30.9077 29.4494 30.9058C29.4615 30.9058 29.483 30.9232 29.4897 30.938C29.547 31.0582 29.614 31.1736 29.6901 31.283C29.7762 31.3931 29.9362 31.4643 29.9953 31.275C30.0074 31.2333 30.0222 31.1917 30.0303 31.1488C30.0384 31.1058 30.0222 31.0682 30.0303 31.0306C30.0323 31.0095 30.0413 30.9897 30.0558 30.9742C30.065 30.9709 30.0748 30.97 30.0844 30.9714C30.094 30.9728 30.1032 30.9765 30.111 30.9823C30.158 31.0266 30.111 31.1689 30.1231 31.2293C30.1501 31.3181 30.1838 31.4047 30.2239 31.4884C30.262 31.5969 30.2722 31.7133 30.2535 31.8267C30.2215 32.0105 30.1511 32.1854 30.0468 32.3402C29.9425 32.4949 29.8068 32.626 29.6484 32.7249C29.1562 33.074 28.3938 33.0364 27.8721 32.7759C27.5749 32.6427 27.3074 32.4514 27.0854 32.2134L27.0531 32.1865Z" fill="#1F515B"/>
<path d="M13.8122 8.87883C13.819 8.86406 13.8337 8.84526 13.8311 8.83184C13.8218 8.7604 13.7945 8.69248 13.7517 8.63448C13.7075 8.58521 13.6499 8.54984 13.5859 8.53267C13.5219 8.51551 13.4543 8.5173 13.3913 8.53782C13.329 8.55288 13.2729 8.58674 13.2306 8.63478C13.1882 8.68282 13.1617 8.74272 13.1547 8.80633C13.1354 8.93921 13.1635 9.07462 13.234 9.18895C13.2663 9.244 13.3053 9.29501 13.3389 9.35006C13.3623 9.38722 13.3834 9.42578 13.4021 9.46552C13.4084 9.47898 13.4116 9.49364 13.4116 9.50848C13.4116 9.52332 13.4084 9.53798 13.4021 9.55144C13.3725 9.5219 13.347 9.49371 13.3174 9.46686C13.2695 9.42478 13.2132 9.39342 13.1522 9.3749C13.0912 9.35637 13.0269 9.35111 12.9637 9.35946C12.8059 9.37976 12.6554 9.4383 12.5254 9.52996C12.403 9.60917 12.2833 9.69241 12.1636 9.7743C11.9802 9.89609 11.7624 9.95585 11.5424 9.94481C11.5348 9.94355 11.5271 9.94355 11.5195 9.94481C11.5976 9.98186 11.6798 10.0098 11.7643 10.028C11.8476 10.0428 11.9324 10.0509 12.013 10.0616L11.8638 10.0737L11.8839 10.0844C12.1482 10.22 12.4422 10.2874 12.7392 10.2804C12.9208 10.2809 13.1016 10.2574 13.277 10.2106C13.4159 10.1766 13.5464 10.1144 13.6603 10.028C13.7401 9.9709 13.7954 9.88568 13.8148 9.78953C13.8343 9.69338 13.8165 9.59344 13.7652 9.50982C13.7209 9.43795 13.671 9.36971 13.6159 9.30576C13.5608 9.23594 13.4989 9.1715 13.4451 9.099C13.3918 9.03306 13.3641 8.95011 13.3671 8.8654C13.3647 8.84607 13.3681 8.82645 13.377 8.80911C13.3859 8.79176 13.3999 8.77751 13.417 8.76822C13.4342 8.75893 13.4537 8.75503 13.4732 8.75704C13.4926 8.75905 13.5109 8.76687 13.5258 8.77948C13.5646 8.80531 13.6002 8.83549 13.632 8.86943C13.6524 8.88875 13.6692 8.91147 13.6818 8.93656C13.714 9.00225 13.7599 9.06037 13.8163 9.10706C13.8445 9.12585 13.8674 9.11511 13.8674 9.08155C13.8658 9.06333 13.8607 9.04557 13.8526 9.02919C13.8337 8.97952 13.8136 8.93119 13.7934 8.88151L13.8122 8.87883Z" fill="#1F515B"/>
<path d="M12.9394 14.0115C12.9502 14.0249 12.9394 14.045 12.9139 14.0759C12.742 14.2343 12.5158 14.3208 12.2819 14.3176C11.9794 14.3093 11.6834 14.2287 11.4186 14.0826C11.389 14.0678 11.3339 14.0464 11.3124 14.0826C11.3077 14.0988 11.3077 14.1161 11.3124 14.1323C11.3302 14.2423 11.387 14.3424 11.4724 14.4142C11.5557 14.5069 11.3581 14.48 11.3164 14.4706C11.1576 14.4451 11.0083 14.3785 10.8834 14.2773C10.8118 14.2096 10.7591 14.1245 10.7306 14.0303C10.7021 13.9362 10.6986 13.8362 10.7207 13.7403C10.7734 13.5705 10.8783 13.4216 11.0206 13.3147C11.155 13.2006 11.307 13.1079 11.4388 12.9911C11.5756 12.8788 11.6704 12.7236 11.7077 12.5508C11.7262 12.4639 11.7154 12.3733 11.6769 12.2932C11.6385 12.213 11.5746 12.1478 11.4952 12.1077C11.551 12.2153 11.5744 12.3366 11.5627 12.4571C11.551 12.5776 11.5047 12.6922 11.4293 12.7871C11.2128 13.0556 10.7973 13.1173 10.6467 13.4207C10.6252 13.465 10.605 13.5161 10.5593 13.5322C10.5261 13.5403 10.491 13.5355 10.4612 13.5187C10.3816 13.4821 10.3141 13.4237 10.2664 13.3502C10.2188 13.2768 10.1931 13.1914 10.1922 13.1039C10.2416 13.1239 10.2945 13.134 10.3479 13.1335C10.4012 13.133 10.4539 13.1219 10.5029 13.1009C10.5519 13.08 10.5963 13.0495 10.6335 13.0113C10.6706 12.9731 10.6998 12.9279 10.7193 12.8783C10.7328 12.8572 10.7408 12.833 10.7426 12.808C10.7443 12.783 10.7398 12.7579 10.7294 12.7351C10.719 12.7123 10.703 12.6924 10.6829 12.6774C10.6628 12.6623 10.6393 12.6525 10.6145 12.6488C10.5597 12.639 10.5035 12.6404 10.4493 12.6528C10.3951 12.6652 10.3439 12.6884 10.2988 12.721C10.2538 12.7535 10.2158 12.7948 10.1871 12.8424C10.1583 12.89 10.1395 12.9428 10.1317 12.9978C10.1317 13.0233 9.86278 12.9173 9.84798 12.9052C9.75793 12.8488 9.68203 12.7726 9.62611 12.6823C9.55888 12.5776 9.60997 12.5132 9.68259 12.4246C9.75982 12.3432 9.83083 12.2561 9.89505 12.1641C9.94211 12.0822 9.96632 11.9896 10.0107 11.9063C10.121 11.6956 10.3482 11.5694 10.4773 11.3693C10.5593 11.2351 10.5983 11.0887 10.6709 10.9545C10.7486 10.8142 10.8617 10.6966 10.999 10.6135C11.0923 10.5523 11.1963 10.5095 11.3056 10.4873C11.3473 10.4873 11.4172 10.4779 11.4401 10.5182C11.463 10.5584 11.4132 10.6524 11.3715 10.6887C11.3298 10.7249 11.2518 10.8229 11.3056 10.8739C11.3822 10.8117 11.4636 10.7556 11.549 10.7061C11.7352 10.6085 11.9441 10.5622 12.1541 10.5719C12.2133 10.5719 12.3975 10.5719 12.4083 10.6551C12.4231 10.7786 12.1219 10.745 12.1313 10.9035C12.3566 10.8489 12.5931 10.8629 12.8104 10.9435C13.0277 11.0241 13.2159 11.1677 13.3509 11.3559C13.3738 11.3881 13.3939 11.4499 13.3402 11.4647C13.2864 11.4794 13.1963 11.4163 13.1465 11.4069C13.1082 11.3969 13.0678 11.3984 13.0303 11.411C12.9928 11.4236 12.9598 11.447 12.9354 11.4781C13.1837 11.601 13.4192 11.7481 13.6387 11.9171C13.6642 11.9372 13.6925 11.9694 13.675 11.9963C13.666 12.0071 13.6537 12.0146 13.64 12.0178L13.48 12.0728C13.6331 12.1635 13.7629 12.2885 13.8592 12.438C13.8861 12.4796 13.909 12.5373 13.8767 12.5722C13.8561 12.5901 13.83 12.6006 13.8027 12.6018C13.6226 12.6191 13.4452 12.6579 13.2743 12.7172C13.2339 12.7347 13.164 12.7642 13.1721 12.8193C13.1761 12.8376 13.186 12.8541 13.2003 12.8663C13.2502 12.9146 13.3129 12.9477 13.381 12.9618C13.4492 12.9758 13.5199 12.9701 13.5849 12.9455C13.6683 12.9119 13.5755 13.1536 13.562 13.1818C13.4971 13.3285 13.3983 13.4577 13.2737 13.559C13.1491 13.6603 13.0023 13.7307 12.8453 13.7644C12.765 13.779 12.6833 13.7835 12.6019 13.7779C12.5643 13.7779 12.3921 13.7497 12.4002 13.8181C12.4031 13.8328 12.4101 13.8463 12.4204 13.8571C12.485 13.9309 12.5744 13.9786 12.6718 13.9913C12.7323 13.9967 12.9004 13.9591 12.9394 14.0115ZM10.4007 11.9815C10.406 11.986 10.4122 11.9894 10.4189 11.9915C10.4256 11.9936 10.4327 11.9943 10.4396 11.9936C10.5055 11.9936 10.4988 11.9225 10.5486 11.905C10.5768 11.8943 10.6212 11.905 10.6454 11.8862C10.6978 11.8459 10.6346 11.8258 10.5943 11.8231C10.5601 11.8216 10.526 11.8278 10.4946 11.8413C10.4632 11.8548 10.4352 11.8752 10.4128 11.901C10.3912 11.9265 10.3818 11.9627 10.4007 11.9815Z" fill="#1F515B"/>
<path d="M13.5251 10.6088C13.4967 10.6926 13.4897 10.7821 13.5049 10.8693C13.5518 11.0935 13.6715 11.296 13.8453 11.4455C14.0191 11.595 14.2373 11.6831 14.4664 11.6963C14.7138 11.7191 15.0164 11.613 15.0943 11.358C15.0284 11.3534 14.9622 11.3617 14.8994 11.3821C14.7683 11.3894 14.6377 11.3625 14.5202 11.3043C14.3619 11.2297 14.2201 11.1242 14.1033 10.9941C14.024 10.9149 13.9514 10.8303 13.8707 10.7525C13.8155 10.6988 13.7456 10.5847 13.6757 10.5511C13.6627 10.5418 13.6476 10.536 13.6317 10.534C13.6159 10.532 13.5998 10.5339 13.5849 10.5396C13.57 10.5453 13.5567 10.5546 13.5463 10.5667C13.5358 10.5788 13.5286 10.5933 13.5251 10.6088Z" fill="#1F515B"/>
<path d="M13.8721 10.5564C13.8721 10.598 13.934 10.6585 13.9663 10.6907C14.0706 10.794 14.1815 10.8904 14.2984 10.9793C14.4285 11.0774 14.5732 11.1545 14.7274 11.2076C14.7865 11.2237 14.9331 11.2599 14.9654 11.1901C14.9882 11.1431 14.9398 11.0881 14.9116 11.0558C14.7529 10.8813 14.484 10.7753 14.2715 10.6826C14.1895 10.6477 13.9905 10.4866 13.8977 10.5229C13.8901 10.5245 13.8833 10.5287 13.8786 10.5349C13.874 10.541 13.8716 10.5487 13.8721 10.5564Z" fill="#1F515B"/>
<path d="M14.5926 10.1698C14.801 10.3066 15.0506 10.3669 15.2986 10.3403C15.4264 10.3235 15.5451 10.2649 15.6361 10.1738C15.6512 10.1595 15.6614 10.1407 15.6653 10.1202C15.6692 10.0997 15.6665 10.0786 15.6576 10.0597C15.6455 10.0181 15.6106 10.0114 15.5756 10.0087C15.3713 9.99289 15.171 9.94392 14.9826 9.86369C14.8242 9.79854 14.6923 9.68209 14.6081 9.53307C14.524 9.38405 14.4925 9.21111 14.5187 9.04206C14.5236 9.01155 14.5345 8.98233 14.5509 8.95613C14.5805 8.90109 14.6155 8.84739 14.6464 8.791C14.6558 8.77551 14.6613 8.75803 14.6626 8.73998C14.6656 8.71773 14.6605 8.69511 14.6482 8.67634C14.6358 8.65757 14.617 8.64393 14.5953 8.63795C14.5751 8.63764 14.5552 8.64335 14.5382 8.65434C14.5212 8.66534 14.5078 8.68113 14.4998 8.69971C14.4743 8.75744 14.4474 8.81382 14.4232 8.87155C14.394 8.93764 14.3476 8.99467 14.2887 9.03669C14.2144 9.09445 14.1596 9.17347 14.1314 9.26319C14.1033 9.35291 14.1033 9.44906 14.1314 9.5388C14.1749 9.71801 14.2681 9.88134 14.4003 10.01C14.4756 10.0772 14.5523 10.1349 14.5926 10.1698Z" fill="#1F515B"/>
<path d="M14.5663 9.09033C14.5549 9.22185 14.5776 9.35407 14.6322 9.4743C14.7007 9.62551 14.8229 9.74604 14.9751 9.81262L15.0061 9.82604C15.0589 9.85554 15.1174 9.87343 15.1777 9.87852C15.238 9.88362 15.2987 9.8758 15.3557 9.85558C15.4828 9.83139 15.5969 9.76228 15.6771 9.66091C15.703 9.62645 15.723 9.58787 15.7362 9.5468C15.7388 9.53485 15.7383 9.52245 15.7348 9.51074C15.7313 9.49904 15.7249 9.4884 15.7162 9.47983C15.7075 9.47126 15.6967 9.46503 15.6849 9.46171C15.6732 9.4584 15.6607 9.45811 15.6488 9.46087C15.5668 9.47564 15.4861 9.49981 15.4041 9.51189C15.2646 9.53725 15.1212 9.53082 14.9845 9.49309C14.8974 9.46551 14.8176 9.41856 14.7512 9.35578C14.6849 9.29299 14.6336 9.21601 14.6013 9.13061L14.5852 9.09033H14.5663Z" fill="#1F515B"/>
<path d="M21.1464 24.8613C21.11 24.8145 21.0851 24.7597 21.0738 24.7016C21.0643 24.6224 21.0832 24.5418 21.0738 24.4626C21.0742 24.4057 21.0556 24.3503 21.0211 24.3051C20.9865 24.2599 20.9379 24.2275 20.8828 24.2129C20.9406 24.1954 20.9864 24.229 21.0388 24.2491C21.0406 24.2294 21.0478 24.2106 21.0597 24.1947C21.0716 24.1788 21.0876 24.1665 21.106 24.1592C21.0307 24.2814 21.1491 24.3955 21.1975 24.4988C21.2302 24.5621 21.2451 24.6331 21.2405 24.7043C21.2286 24.7716 21.2054 24.8365 21.1719 24.8962C21.1621 24.8856 21.1536 24.8739 21.1464 24.8613Z" fill="#1F515B"/>
<path d="M21.2525 23.3274C21.2452 23.3395 21.2371 23.3512 21.2283 23.3623C21.2239 23.3578 21.2187 23.3543 21.2129 23.3519C21.2071 23.3494 21.2009 23.3482 21.1947 23.3482C21.1884 23.3482 21.1822 23.3494 21.1764 23.3519C21.1706 23.3543 21.1654 23.3578 21.161 23.3623C21.1651 23.3609 21.1694 23.3604 21.1737 23.3608C21.178 23.3612 21.1821 23.3625 21.1858 23.3647C21.1896 23.3669 21.1927 23.3698 21.1952 23.3734C21.1976 23.3769 21.1993 23.3809 21.2 23.3852C21.2108 23.4296 21.1543 23.4484 21.1288 23.4712C21.09 23.5091 21.0602 23.555 21.0414 23.6057C21.0172 23.6716 21.0561 23.7281 21.1288 23.7052C21.2014 23.6824 21.235 23.5708 21.231 23.4968C21.2269 23.4228 21.2552 23.3166 21.3211 23.2937C21.3076 23.2926 21.2942 23.2951 21.2821 23.301C21.27 23.3069 21.2598 23.316 21.2525 23.3274Z" fill="#1F515B"/>
<path d="M21.0979 23.1596C21.0686 23.1878 21.0412 23.2178 21.0158 23.2496C20.8652 23.4335 20.9473 23.6631 20.9486 23.8779C20.9486 24.1128 20.7657 24.043 20.7173 23.851C20.6914 23.7408 20.695 23.6256 20.7278 23.5172C20.7606 23.4088 20.8215 23.3109 20.9042 23.2334C20.9865 23.1741 21.0618 23.1056 21.1288 23.0294C21.1584 22.9878 21.2458 22.8374 21.2068 22.7864C21.2316 22.8135 21.2502 22.8457 21.2614 22.8807C21.2725 22.9157 21.2759 22.9527 21.2713 22.9891C21.3101 22.9877 21.348 23.0006 21.3777 23.0254C21.4075 23.0502 21.4271 23.0851 21.4327 23.1234C21.3412 22.977 21.2001 23.0562 21.0979 23.1596Z" fill="#1F515B"/>
<path d="M20.7469 26.8475C20.7579 26.8419 20.7683 26.8352 20.7778 26.8274C20.8021 26.8019 20.8303 26.7361 20.8693 26.7361C20.9083 26.7361 20.9365 26.7683 20.9648 26.7844C20.993 26.8005 21.0683 26.8019 21.0374 26.8354C21.0064 26.869 20.9863 26.8583 20.9688 26.8703L20.872 26.9321C20.8572 26.9415 20.8397 26.9495 20.8236 26.9576C20.7939 26.9748 20.7594 26.9819 20.7254 26.9777C20.7106 26.9777 20.7052 26.9777 20.7012 26.9952C20.6588 27.1243 20.5764 27.2367 20.4659 27.3161C20.4207 27.3445 20.3735 27.3697 20.3247 27.3912C20.3529 27.4168 20.3839 27.4114 20.4202 27.4181C20.4643 27.4295 20.5105 27.4295 20.5546 27.4181C20.5829 27.41 20.6595 27.3792 20.677 27.4181C20.6945 27.457 20.6582 27.4799 20.6434 27.4946C20.6049 27.5278 20.5586 27.5509 20.5089 27.5617C20.4134 27.5926 20.2548 27.6222 20.1821 27.5295C20.159 27.4971 20.1434 27.46 20.1364 27.4208C20.1363 27.4183 20.1356 27.4159 20.1345 27.4137C20.1334 27.4115 20.1319 27.4095 20.13 27.4079C20.1281 27.4062 20.1259 27.405 20.1236 27.4042C20.1212 27.4035 20.1187 27.4031 20.1163 27.4033C20.0693 27.3974 20.0238 27.3833 19.9818 27.3617C19.9761 27.3602 19.97 27.3602 19.9643 27.3617C19.9313 27.3649 19.9006 27.3802 19.8782 27.4047C19.8554 27.4342 19.8433 27.4718 19.8177 27.4986C19.7906 27.5276 19.7547 27.5469 19.7155 27.5537C19.6819 27.5617 19.5811 27.5846 19.5703 27.5376C19.5703 27.5188 19.5797 27.4933 19.5851 27.4758C19.5908 27.4454 19.5998 27.4157 19.612 27.3872C19.6396 27.3434 19.6821 27.311 19.7317 27.2959C19.7572 27.2879 19.7774 27.2959 19.7962 27.2691C19.8129 27.25 19.8253 27.2276 19.8325 27.2033C19.8345 27.1963 19.8345 27.1888 19.8325 27.1818C19.8161 27.1344 19.8097 27.0841 19.8137 27.0341C19.8137 27.0234 19.8137 27.0194 19.8016 27.014C19.7722 26.9969 19.744 26.9781 19.7169 26.9576C19.6949 26.94 19.6773 26.9174 19.6656 26.8918C19.654 26.8661 19.6485 26.8381 19.6496 26.8099C19.6478 26.7484 19.6569 26.687 19.6765 26.6287C19.6846 26.5978 19.694 26.5441 19.7236 26.524C19.728 26.52 19.7333 26.5171 19.739 26.5155C19.7447 26.5139 19.7507 26.5136 19.7565 26.5146C19.7623 26.5156 19.7678 26.518 19.7726 26.5215C19.7774 26.525 19.7813 26.5295 19.7841 26.5347C19.807 26.5911 19.7626 26.6609 19.7841 26.72C19.7953 26.75 19.8132 26.7771 19.8366 26.7992C19.8508 26.8143 19.8625 26.8315 19.8715 26.8502C19.8932 26.8264 19.9122 26.8003 19.928 26.7723C19.9498 26.7454 19.9741 26.7207 20.0006 26.6985C20.0549 26.6544 20.1157 26.6191 20.1808 26.5938C20.2344 26.5742 20.2892 26.5581 20.3449 26.5454C20.357 26.5454 20.3623 26.5374 20.3637 26.5253C20.3655 26.49 20.3792 26.4564 20.4027 26.43C20.4269 26.4018 20.5519 26.2232 20.5963 26.2742C20.6084 26.289 20.603 26.3199 20.6057 26.3373C20.6186 26.3679 20.621 26.4019 20.6125 26.434C20.5977 26.4635 20.5479 26.4837 20.521 26.5011C20.5147 26.5039 20.5094 26.5084 20.5056 26.5141C20.5018 26.5198 20.4997 26.5265 20.4995 26.5334H20.5197C20.5602 26.5388 20.6011 26.5415 20.642 26.5414C20.6676 26.5414 20.712 26.5334 20.7281 26.5602C20.7442 26.5871 20.673 26.5938 20.681 26.6179C20.6891 26.6421 20.7483 26.5871 20.7671 26.6072C20.7859 26.6273 20.7778 26.6609 20.7671 26.6837C20.7608 26.7178 20.7572 26.7524 20.7563 26.7871C20.7563 26.8059 20.7563 26.826 20.7483 26.8448L20.7469 26.8475Z" fill="#1F515B"/>
<path d="M24.3092 27.1549C24.2799 27.1569 24.2505 27.1517 24.2237 27.1396C24.1969 27.1276 24.1736 27.109 24.1557 27.0857C24.1379 27.0624 24.1261 27.035 24.1214 27.006C24.1167 26.977 24.1193 26.9473 24.129 26.9195C24.1653 26.831 24.2104 26.7463 24.2634 26.6667C24.2876 26.6264 24.324 26.6344 24.3455 26.6667C24.3973 26.7452 24.4423 26.828 24.4799 26.9142C24.49 26.9414 24.4933 26.9707 24.4894 26.9996C24.4856 27.0284 24.4748 27.0558 24.458 27.0795C24.4412 27.1032 24.4188 27.1225 24.3929 27.1356C24.367 27.1487 24.3382 27.1554 24.3092 27.1549Z" fill="#1F515B"/>
<path d="M25.1465 24.9942C25.1225 24.9626 25.0896 24.9388 25.0519 24.9261C25.0142 24.9134 24.9736 24.9124 24.9353 24.9231C24.897 24.9341 24.8632 24.9571 24.8389 24.9888C24.8147 25.0205 24.8014 25.0591 24.8009 25.099C24.7847 25.2507 24.7605 25.2654 24.614 25.2211C24.5823 25.2106 24.5478 25.2121 24.5173 25.2255C24.4867 25.2389 24.4622 25.2632 24.4486 25.2936C24.4356 25.3245 24.4346 25.359 24.4457 25.3906C24.4569 25.4221 24.4795 25.4484 24.5091 25.4641L24.5656 25.4923C24.5513 25.5104 24.5387 25.5297 24.5279 25.5501C24.4499 25.7219 24.3719 25.8924 24.2953 26.0643C24.255 26.1478 24.2365 26.2402 24.2415 26.3328C24.2462 26.385 24.2462 26.4376 24.2415 26.4898C24.2355 26.5156 24.238 26.5426 24.2486 26.5668C24.2593 26.591 24.2776 26.6111 24.3007 26.6241C24.3271 26.6352 24.3566 26.6365 24.3839 26.6279C24.4112 26.6193 24.4346 26.6013 24.4499 26.5771C24.473 26.5447 24.5006 26.5158 24.5319 26.4912C24.6218 26.4329 24.6917 26.3486 24.7323 26.2495C24.8036 26.0898 24.8775 25.9313 24.9474 25.7716C24.9604 25.7378 24.9712 25.7033 24.9797 25.6682L25.0402 25.6924C25.0724 25.7046 25.1081 25.704 25.1398 25.6908C25.1716 25.6775 25.1971 25.6526 25.211 25.6212C25.224 25.5904 25.225 25.5558 25.2138 25.5243C25.2026 25.4927 25.1801 25.4665 25.1505 25.4507L25.1142 25.4333C25.0982 25.4268 25.0841 25.4163 25.0734 25.4027C25.0626 25.3891 25.0556 25.373 25.0531 25.356C25.0505 25.3389 25.0524 25.3214 25.0587 25.3053C25.0649 25.2892 25.0752 25.275 25.0886 25.2641C25.1108 25.244 25.1306 25.2215 25.1478 25.197C25.1704 25.1679 25.1826 25.1321 25.1823 25.0954C25.1821 25.0586 25.1694 25.023 25.1465 24.9942ZM24.7995 25.8776C24.7444 25.9985 24.6933 26.122 24.6328 26.2401C24.6029 26.2991 24.5634 26.3526 24.5158 26.3985C24.4674 26.4442 24.4042 26.4214 24.3813 26.3408C24.3817 26.2991 24.3876 26.2575 24.3988 26.2173C24.4539 26.083 24.5171 25.9488 24.579 25.8065C24.5898 25.7945 24.6046 25.7868 24.6207 25.785C24.6543 25.783 24.688 25.783 24.7215 25.785C24.751 25.7827 24.7806 25.7878 24.8076 25.7998C24.8318 25.8172 24.8116 25.8508 24.7995 25.8776Z" fill="#1F515B"/>
<path d="M13.8837 22.2377C13.8391 22.231 13.7938 22.231 13.7493 22.2377C13.579 22.2812 13.4259 22.3747 13.3095 22.5062C13.1858 22.6257 13.0406 22.7613 13.0581 22.9492C13.0641 23.027 13.0913 23.1017 13.1368 23.1651C13.1823 23.2286 13.2444 23.2783 13.3163 23.309C13.5032 23.3788 13.6861 23.2741 13.8299 23.1614C13.9155 23.0824 14.0077 23.011 14.1056 22.9479C14.1573 22.9193 14.2147 22.9028 14.2737 22.8996C14.31 22.8996 14.4082 22.9291 14.4404 22.8996C14.4727 22.87 14.4082 22.8391 14.3853 22.8271C14.2508 22.7573 14.197 22.5827 14.1527 22.4471C14.131 22.3912 14.0945 22.3422 14.0472 22.3053C13.9998 22.2684 13.9433 22.2451 13.8837 22.2377Z" fill="#1F515B"/>
<path d="M14.3547 22.3285L14.3413 22.3218C14.309 22.2793 14.2865 22.2303 14.2754 22.1781C14.2583 22.1251 14.2484 22.07 14.2458 22.0143C14.2422 21.9586 14.2526 21.9029 14.2761 21.8522C14.2996 21.8016 14.3354 21.7576 14.3803 21.7243C14.5148 21.6209 14.7837 21.5901 14.8751 21.7619L14.8845 21.7794C14.9545 21.9136 14.8388 21.9969 14.7192 22.0385C14.621 22.0734 14.3655 22.0908 14.3709 22.2264C14.3709 22.2519 14.3897 22.2788 14.3884 22.3016C14.387 22.3244 14.3695 22.3325 14.3547 22.3285Z" fill="#1F515B"/>
<path d="M14.1502 32.1537C13.9835 32.1417 13.8219 32.0911 13.6782 32.0058C13.6284 31.9816 13.58 31.9574 13.533 31.9385C13.3413 31.8574 13.1313 31.8296 12.9252 31.8578C12.9089 31.8597 12.8925 31.8583 12.8769 31.8536C12.8612 31.8489 12.8467 31.8412 12.8341 31.8307C12.8216 31.8203 12.8112 31.8074 12.8038 31.7929C12.7963 31.7784 12.7919 31.7625 12.7907 31.7462C12.789 31.7301 12.7906 31.7139 12.7952 31.6984C12.7999 31.6829 12.8075 31.6685 12.8178 31.656C12.828 31.6435 12.8407 31.6331 12.8549 31.6255C12.8692 31.618 12.8849 31.6133 12.901 31.6117C13.147 31.5799 13.3971 31.6137 13.6257 31.7099C13.6809 31.7328 13.7347 31.7583 13.7858 31.7852C13.9133 31.8694 14.0649 31.9095 14.2174 31.8995C14.2497 31.8915 14.286 31.8794 14.3236 31.8673C14.3954 31.8403 14.4705 31.8236 14.5469 31.8175C14.563 31.8166 14.5792 31.819 14.5944 31.8245C14.6096 31.83 14.6236 31.8386 14.6354 31.8496C14.6472 31.8607 14.6566 31.874 14.6632 31.8888C14.6697 31.9037 14.6731 31.9197 14.6733 31.9358C14.6738 31.9519 14.6712 31.9679 14.6655 31.983C14.6599 31.998 14.6513 32.0118 14.6403 32.0236C14.6293 32.0353 14.6161 32.0448 14.6015 32.0514C14.5868 32.058 14.571 32.0617 14.5549 32.0622C14.5019 32.0684 14.4499 32.0815 14.4003 32.1012C14.3562 32.1163 14.3113 32.1289 14.2658 32.1389C14.2279 32.1479 14.1891 32.1529 14.1502 32.1537Z" fill="#1F515B"/>
<path d="M11.1508 31.4061C11.102 31.4063 11.0534 31.4018 11.0055 31.3927C10.8249 31.3545 10.6654 31.2495 10.5591 31.0987C10.5213 31.0513 10.4804 31.0065 10.4367 30.9645C10.4158 30.9417 10.4043 30.9119 10.4043 30.881C10.4043 30.8501 10.416 30.8203 10.4369 30.7975C10.4578 30.7748 10.4866 30.7607 10.5174 30.758C10.5482 30.7554 10.5789 30.7644 10.6035 30.7832C10.6542 30.8306 10.7018 30.8813 10.746 30.9349C10.8166 31.0423 10.9259 31.1183 11.0513 31.147C11.1445 31.1603 11.2391 31.1603 11.3323 31.147C11.3807 31.147 11.4291 31.1363 11.4789 31.1336C11.4949 31.1328 11.511 31.1352 11.5262 31.1406C11.5413 31.146 11.5552 31.1543 11.5672 31.1651C11.5791 31.1759 11.5888 31.1889 11.5957 31.2034C11.6025 31.218 11.6065 31.2337 11.6073 31.2497C11.6081 31.2658 11.6057 31.2818 11.6003 31.297C11.5949 31.3121 11.5865 31.326 11.5757 31.3379C11.5649 31.3498 11.5519 31.3595 11.5373 31.3663C11.5228 31.3732 11.507 31.3772 11.491 31.378L11.3565 31.39C11.2883 31.3994 11.2196 31.4048 11.1508 31.4061Z" fill="#1F515B"/>
<path d="M15.7328 32.8012C15.681 32.801 15.6294 32.7975 15.5781 32.7905C15.4578 32.7658 15.3426 32.7204 15.2379 32.6562C15.1651 32.6107 15.0844 32.5793 14.9999 32.5636C14.8856 32.5656 14.7733 32.5941 14.6718 32.6468C14.5798 32.688 14.4839 32.7194 14.3854 32.7408C14.0842 32.7972 13.8475 32.6952 13.6108 32.5972C13.5597 32.5757 13.5086 32.5542 13.4549 32.5341C13.2332 32.4529 12.995 32.4271 12.761 32.4589C12.6416 32.4758 12.52 32.4673 12.4041 32.434C12.2882 32.4007 12.1807 32.3433 12.0886 32.2656L12.0039 32.2119C11.735 32.0373 11.5252 31.9715 11.384 32.0185C11.3632 32.027 11.341 32.031 11.3185 32.0305C11.2961 32.03 11.274 32.0249 11.2536 32.0156C11.2333 32.0062 11.215 31.9928 11.2001 31.9761C11.1851 31.9594 11.1737 31.9398 11.1666 31.9186C11.1595 31.8973 11.1569 31.8749 11.1588 31.8526C11.1608 31.8302 11.1673 31.8086 11.178 31.7889C11.1886 31.7692 11.2032 31.7519 11.2209 31.738C11.2385 31.7242 11.2588 31.7141 11.2805 31.7084C11.5239 31.6278 11.8184 31.7084 12.1814 31.9366L12.2688 31.993C12.4625 32.1206 12.5136 32.1555 12.7368 32.134C13.0214 32.0961 13.311 32.1289 13.5799 32.2293L13.7453 32.2964C13.9497 32.3824 14.1272 32.4575 14.3329 32.4186C14.4092 32.4008 14.4835 32.3756 14.5548 32.3434C14.7051 32.2692 14.8713 32.2328 15.0389 32.2374C15.1665 32.257 15.2888 32.3027 15.3979 32.3716C15.4708 32.4156 15.5503 32.4478 15.6333 32.4669C15.8415 32.4866 16.0508 32.4436 16.2343 32.3434C16.2732 32.3244 16.3181 32.3215 16.359 32.3355C16.4 32.3495 16.4338 32.3791 16.4528 32.4179C16.4719 32.4567 16.4748 32.5015 16.4608 32.5424C16.4468 32.5834 16.4171 32.617 16.3782 32.6361C16.1789 32.7405 15.9579 32.7971 15.7328 32.8012Z" fill="#1F515B"/>
<path d="M13.0847 30.553C13.0173 30.5853 12.9631 30.6399 12.9314 30.7077C12.9298 30.7111 12.9272 30.714 12.924 30.716C12.9208 30.718 12.9171 30.7191 12.9133 30.7191C12.9095 30.7191 12.9058 30.718 12.9026 30.716C12.8994 30.714 12.8968 30.7111 12.8951 30.7077C12.8639 30.6397 12.8096 30.5849 12.7418 30.553C12.7384 30.5514 12.7356 30.5488 12.7335 30.5456C12.7315 30.5424 12.7305 30.5387 12.7305 30.5349C12.7305 30.5311 12.7315 30.5274 12.7335 30.5242C12.7356 30.521 12.7384 30.5184 12.7418 30.5167C12.8098 30.4858 12.8642 30.4314 12.8951 30.3634C12.8968 30.36 12.8994 30.3571 12.9026 30.3551C12.9058 30.3531 12.9095 30.3521 12.9133 30.3521C12.9171 30.3521 12.9208 30.3531 12.924 30.3551C12.9272 30.3571 12.9298 30.36 12.9314 30.3634C12.9628 30.4311 13.0171 30.4854 13.0847 30.5167C13.0882 30.5184 13.091 30.521 13.093 30.5242C13.0951 30.5274 13.0961 30.5311 13.0961 30.5349C13.0961 30.5387 13.0951 30.5424 13.093 30.5456C13.091 30.5488 13.0882 30.5514 13.0847 30.553Z" fill="#1F515B"/>
<path d="M12.8844 31.0568C12.7735 31.0125 12.6727 30.9464 12.5879 30.8625C12.5032 30.7785 12.4361 30.6784 12.3909 30.5681C12.3886 30.562 12.3844 30.5566 12.379 30.5529C12.3736 30.5491 12.3672 30.5471 12.3606 30.5471C12.354 30.5471 12.3476 30.5491 12.3422 30.5529C12.3368 30.5566 12.3326 30.562 12.3303 30.5681C12.2854 30.6795 12.2184 30.7806 12.1333 30.8655C12.0483 30.9504 11.947 31.0173 11.8355 31.0622C11.8293 31.0645 11.824 31.0686 11.8202 31.074C11.8165 31.0794 11.8145 31.0858 11.8145 31.0924C11.8145 31.099 11.8165 31.1054 11.8202 31.1108C11.824 31.1162 11.8293 31.1203 11.8355 31.1226C11.947 31.1672 12.0483 31.2339 12.1333 31.3185C12.2183 31.4032 12.2854 31.5041 12.3303 31.6153C12.3326 31.6215 12.3368 31.6268 12.3422 31.6305C12.3476 31.6343 12.354 31.6363 12.3606 31.6363C12.3672 31.6363 12.3736 31.6343 12.379 31.6305C12.3844 31.6268 12.3886 31.6215 12.3909 31.6153C12.4356 31.5042 12.5023 31.4032 12.5871 31.3186C12.672 31.2339 12.7731 31.1672 12.8844 31.1226C12.8931 31.1226 12.9015 31.1191 12.9077 31.113C12.9138 31.1068 12.9173 31.0984 12.9173 31.0897C12.9173 31.081 12.9138 31.0726 12.9077 31.0664C12.9015 31.0603 12.8931 31.0568 12.8844 31.0568ZM12.5361 31.1051C12.4665 31.137 12.4107 31.1928 12.3788 31.2622C12.3771 31.2656 12.3745 31.2685 12.3713 31.2705C12.3681 31.2725 12.3644 31.2736 12.3606 31.2736C12.3568 31.2736 12.3531 31.2725 12.3499 31.2705C12.3467 31.2685 12.3441 31.2656 12.3424 31.2622C12.3092 31.1918 12.2513 31.136 12.1797 31.1051C12.1763 31.1035 12.1735 31.1009 12.1714 31.0977C12.1694 31.0945 12.1684 31.0908 12.1684 31.087C12.1684 31.0832 12.1694 31.0795 12.1714 31.0763C12.1735 31.0731 12.1763 31.0705 12.1797 31.0689C12.2493 31.037 12.3051 30.9813 12.3371 30.9118C12.3387 30.9084 12.3413 30.9055 12.3445 30.9035C12.3477 30.9015 12.3514 30.9005 12.3552 30.9005C12.359 30.9005 12.3627 30.9015 12.3659 30.9035C12.3691 30.9055 12.3717 30.9084 12.3734 30.9118C12.4053 30.9813 12.4611 31.037 12.5307 31.0689C12.5344 31.07 12.5377 31.0721 12.5403 31.075C12.5428 31.0779 12.5445 31.0815 12.5451 31.0853C12.5456 31.0891 12.5451 31.093 12.5435 31.0965C12.5419 31.1001 12.5393 31.103 12.5361 31.1051Z" fill="#1F515B"/>
</svg>
