<svg width="26" height="26" viewBox="0 0 26 26" fill="none" xmlns="http://www.w3.org/2000/svg">
<mask id="mask0_1601_2931" style="mask-type:alpha" maskUnits="userSpaceOnUse" x="0" y="0" width="26" height="26">
<rect x="0.65" y="0.65" width="24.7" height="24.7" fill="#D9D9D9" stroke="white" stroke-width="1.3"/>
</mask>
<g mask="url(#mask0_1601_2931)">
<path d="M4.77637 3.72144H21.2266C21.8 3.72144 22.2849 3.92042 22.6826 4.31812C23.0803 4.71584 23.2792 5.20078 23.2793 5.77417V17.8914C23.2792 18.4647 23.0803 18.9497 22.6826 19.3474C22.2849 19.7451 21.8 19.9441 21.2266 19.9441H6.54297V19.9382L6.53418 19.948L4.47363 22.0085C4.31194 22.1702 4.13761 22.2696 3.95215 22.3074C3.76682 22.345 3.5682 22.3216 3.35645 22.2361C3.14476 22.1506 2.98693 22.0312 2.88184 21.8787C2.77674 21.7259 2.72366 21.5384 2.72363 21.3162V5.77417C2.72369 5.20078 2.92259 4.71584 3.32031 4.31812C3.71804 3.92039 4.20298 3.7215 4.77637 3.72144ZM4.77637 5.42749C4.67606 5.42755 4.5926 5.45989 4.52734 5.52515C4.49633 5.55616 4.47326 5.59155 4.45703 5.63062V5.44116H4.42969V19.6277L4.45312 19.6052L5.81934 18.238H21.2266C21.3269 18.238 21.4103 18.2056 21.4756 18.1404C21.5408 18.0751 21.5732 17.9916 21.5732 17.8914V5.77417C21.5732 5.67386 21.5408 5.5904 21.4756 5.52515C21.4103 5.45992 21.3269 5.42749 21.2266 5.42749H4.77637ZM7.6084 14.1755H14.0879C14.3123 14.1755 14.5104 14.2611 14.6816 14.4324C14.8527 14.6036 14.9385 14.8025 14.9385 15.0291C14.9384 15.2711 14.8555 15.4734 14.6904 15.6365C14.5247 15.8001 14.3328 15.8816 14.1152 15.8816H7.63574C7.41131 15.8816 7.21327 15.796 7.04199 15.6248C6.87117 15.4537 6.78625 15.2554 6.78613 15.0291C6.78613 14.7866 6.86885 14.5839 7.03418 14.4207C7.19983 14.2571 7.39096 14.1756 7.6084 14.1755ZM7.60742 10.9792H18.3682C18.592 10.9792 18.7897 11.0648 18.9609 11.2361C19.1321 11.4073 19.2168 11.6061 19.2168 11.8328C19.2168 12.0752 19.1341 12.2779 18.9688 12.4412C18.8031 12.6045 18.6123 12.6863 18.3955 12.6863H7.63477C7.41097 12.6863 7.21325 12.6007 7.04199 12.4294C6.87089 12.2582 6.78614 12.0594 6.78613 11.8328C6.78613 11.5903 6.86883 11.3876 7.03418 11.2244C7.19976 11.061 7.39071 10.9793 7.60742 10.9792ZM7.60742 7.78394H18.3682C18.5919 7.78394 18.7897 7.8686 18.9609 8.03979C19.1321 8.21093 19.2167 8.40994 19.2168 8.63647C19.2168 8.87892 19.1341 9.0816 18.9688 9.24487C18.8031 9.40838 18.6124 9.48997 18.3955 9.48999H7.63477C7.41097 9.48996 7.21325 9.40441 7.04199 9.23315C6.87103 9.062 6.78613 8.86299 6.78613 8.63647C6.78623 8.39425 6.86897 8.19222 7.03418 8.02905C7.19981 7.86552 7.39062 7.78403 7.60742 7.78394Z" fill="white" stroke="white" stroke-width="0.0270833"/>
</g>
</svg>
