<svg width="22" height="22" viewBox="0 0 22 22" fill="none" xmlns="http://www.w3.org/2000/svg">
<path d="M18.15 20.625H13.6812C13.4989 20.625 13.324 20.5526 13.1951 20.4236C13.0662 20.2947 12.9937 20.1198 12.9937 19.9375C12.9937 19.7552 13.0662 19.5803 13.1951 19.4514C13.324 19.3224 13.4989 19.25 13.6812 19.25H18.15C18.4417 19.25 18.7215 19.1341 18.9278 18.9278C19.1341 18.7215 19.25 18.4417 19.25 18.15V13.6812C19.25 13.4989 19.3224 13.324 19.4514 13.1951C19.5803 13.0662 19.7552 12.9937 19.9375 12.9937C20.1198 12.9937 20.2947 13.0662 20.4236 13.1951C20.5526 13.324 20.625 13.4989 20.625 13.6812V18.15C20.6232 18.8059 20.3618 19.4343 19.8981 19.8981C19.4343 20.3618 18.8059 20.6232 18.15 20.625ZM9.00625 19.9375C9.00625 19.7552 8.93382 19.5803 8.80489 19.4514C8.67595 19.3224 8.50109 19.25 8.31875 19.25H3.85C3.55826 19.25 3.27847 19.1341 3.07218 18.9278C2.86589 18.7215 2.75 18.4417 2.75 18.15V13.6812C2.75 13.4989 2.67757 13.324 2.54864 13.1951C2.4197 13.0662 2.24484 12.9937 2.0625 12.9937C1.88016 12.9937 1.7053 13.0662 1.57636 13.1951C1.44743 13.324 1.375 13.4989 1.375 13.6812V18.15C1.37681 18.8059 1.63815 19.4343 2.10191 19.8981C2.56567 20.3618 3.19415 20.6232 3.85 20.625H8.31875C8.50109 20.625 8.67595 20.5526 8.80489 20.4236C8.93382 20.2947 9.00625 20.1198 9.00625 19.9375ZM2.75 8.31875V3.85C2.75 3.55826 2.86589 3.27847 3.07218 3.07218C3.27847 2.86589 3.55826 2.75 3.85 2.75H8.31875C8.50109 2.75 8.67595 2.67757 8.80489 2.54864C8.93382 2.4197 9.00625 2.24484 9.00625 2.0625C9.00625 1.88016 8.93382 1.7053 8.80489 1.57636C8.67595 1.44743 8.50109 1.375 8.31875 1.375H3.85C3.19415 1.37681 2.56567 1.63815 2.10191 2.10191C1.63815 2.56567 1.37681 3.19415 1.375 3.85V8.31875C1.375 8.50109 1.44743 8.67595 1.57636 8.80489C1.7053 8.93382 1.88016 9.00625 2.0625 9.00625C2.24484 9.00625 2.4197 8.93382 2.54864 8.80489C2.67757 8.67595 2.75 8.50109 2.75 8.31875ZM20.625 8.31875V3.85C20.6232 3.19415 20.3618 2.56567 19.8981 2.10191C19.4343 1.63815 18.8059 1.37681 18.15 1.375H13.6812C13.4989 1.375 13.324 1.44743 13.1951 1.57636C13.0662 1.7053 12.9937 1.88016 12.9937 2.0625C12.9937 2.24484 13.0662 2.4197 13.1951 2.54864C13.324 2.67757 13.4989 2.75 13.6812 2.75H18.15C18.4417 2.75 18.7215 2.86589 18.9278 3.07218C19.1341 3.27847 19.25 3.55826 19.25 3.85V8.31875C19.25 8.50109 19.3224 8.67595 19.4514 8.80489C19.5803 8.93382 19.7552 9.00625 19.9375 9.00625C20.1198 9.00625 20.2947 8.93382 20.4236 8.80489C20.5526 8.67595 20.625 8.50109 20.625 8.31875Z" fill="black"/>
</svg>
