<svg width="24" height="24" viewBox="0 0 24 24" fill="none" xmlns="http://www.w3.org/2000/svg">
<path d="M18.46 19.4993H5.54C4.85874 19.5001 4.20087 19.2509 3.69112 18.7989C3.18137 18.3469 2.85518 17.7236 2.77437 17.0472C2.75968 16.9284 2.75154 16.8089 2.75 16.6893C2.75254 16.2985 2.83794 15.9127 3.00055 15.5573C3.16316 15.202 3.39929 14.8851 3.69336 14.6278L4.07031 14.2904C4.55049 13.8623 4.87135 13.2841 4.98047 12.6502L5.76953 7.91584C5.98567 6.58179 6.6257 5.35282 7.59485 4.41093C8.56399 3.46905 9.81072 2.86433 11.1504 2.68634C11.3475 2.65992 11.547 2.71288 11.7051 2.83357C11.8631 2.95426 11.9667 3.13279 11.9932 3.32989C12.0196 3.52699 11.9666 3.72651 11.8459 3.88456C11.7252 4.04261 11.5467 4.14625 11.3496 4.17267C10.328 4.30915 9.37758 4.77102 8.63901 5.48989C7.90045 6.20875 7.41305 7.14637 7.249 8.16389L6.46 12.9027C6.29206 13.8719 5.80128 14.7559 5.06742 15.411L4.69047 15.7484C4.55456 15.865 4.44501 16.0092 4.36908 16.1715C4.29315 16.3337 4.25257 16.5102 4.25004 16.6893C4.25136 16.7525 4.25658 16.8157 4.26567 16.8783C4.3043 17.1886 4.4553 17.4741 4.69011 17.6806C4.92491 17.8872 5.22726 18.0006 5.54 17.9993H18.46C18.7779 18.0011 19.085 17.8838 19.3209 17.6705C19.5567 17.4573 19.7042 17.1635 19.7344 16.847C19.7354 16.8362 19.7461 16.7562 19.7471 16.7454C19.7621 16.5421 19.729 16.3381 19.6504 16.1499C19.5719 15.9617 19.4501 15.7947 19.295 15.6624L19.0215 15.4368C18.2542 14.7785 17.7409 13.8728 17.5703 12.8763L17.0596 9.79187C17.0283 9.59612 17.0758 9.39596 17.1917 9.23512C17.3076 9.07428 17.4824 8.96583 17.6779 8.93344C17.8735 8.90105 18.0739 8.94737 18.2354 9.06227C18.397 9.17718 18.5065 9.35133 18.54 9.5467L19.0498 12.6268C19.1595 13.2734 19.4914 13.8616 19.9882 14.2899L20.2685 14.5218C20.7027 14.8974 21.0126 15.396 21.1571 15.9516C21.3017 16.5072 21.2741 17.0937 21.0781 17.6332C20.882 18.1728 20.5267 18.6402 20.0592 18.9734C19.5917 19.3066 19.034 19.49 18.46 19.4993Z" fill="black"/>
<path d="M12 22.75C11.0058 22.7488 10.0526 22.3534 9.34964 21.6504C8.64663 20.9474 8.25117 19.9942 8.25 19V18.75C8.25 18.5511 8.32902 18.3603 8.46967 18.2197C8.61032 18.079 8.80109 18 9 18C9.19891 18 9.38968 18.079 9.53033 18.2197C9.67098 18.3603 9.75 18.5511 9.75 18.75V19C9.75 19.5967 9.98705 20.169 10.409 20.591C10.831 21.0129 11.4033 21.25 12 21.25C12.5967 21.25 13.169 21.0129 13.591 20.591C14.0129 20.169 14.25 19.5967 14.25 19V18.75C14.25 18.5511 14.329 18.3603 14.4697 18.2197C14.6103 18.079 14.8011 18 15 18C15.1989 18 15.3897 18.079 15.5303 18.2197C15.671 18.3603 15.75 18.5511 15.75 18.75V19C15.7488 19.9942 15.3534 20.9474 14.6504 21.6504C13.9474 22.3534 12.9942 22.7488 12 22.75Z" fill="black"/>
<path d="M16 8.75C15.2583 8.75 14.5333 8.53007 13.9166 8.11801C13.2999 7.70596 12.8193 7.12029 12.5355 6.43506C12.2516 5.74984 12.1774 4.99584 12.3221 4.26841C12.4668 3.54098 12.8239 2.8728 13.3484 2.34835C13.8728 1.8239 14.541 1.46675 15.2684 1.32206C15.9958 1.17736 16.7498 1.25162 17.4351 1.53545C18.1203 1.81928 18.706 2.29993 19.118 2.91661C19.5301 3.5333 19.75 4.25832 19.75 5C19.7488 5.9942 19.3534 6.94735 18.6504 7.65036C17.9474 8.35337 16.9942 8.74883 16 8.75ZM16 2.75C15.555 2.75 15.12 2.88196 14.75 3.12919C14.38 3.37643 14.0916 3.72783 13.9213 4.13896C13.751 4.5501 13.7064 5.0025 13.7932 5.43895C13.8801 5.87541 14.0943 6.27632 14.409 6.59099C14.7237 6.90566 15.1246 7.11995 15.561 7.20677C15.9975 7.29359 16.4499 7.24903 16.861 7.07873C17.2722 6.90843 17.6236 6.62004 17.8708 6.25003C18.118 5.88002 18.25 5.44501 18.25 5C18.2493 4.40349 18.012 3.83162 17.5902 3.40982C17.1684 2.98803 16.5965 2.75074 16 2.75Z" fill="black"/>
</svg>
