<svg width="18" height="18" viewBox="0 0 18 18" fill="none" xmlns="http://www.w3.org/2000/svg">
<path d="M17.3096 14.2648C17.3096 14.5648 17.243 14.8732 17.1013 15.1732C16.9596 15.4732 16.7763 15.7565 16.5346 16.0232C16.1263 16.4732 15.6763 16.7982 15.168 17.0065C14.668 17.2148 14.1263 17.3232 13.543 17.3232C12.693 17.3232 11.7846 17.1232 10.8263 16.7148C9.86797 16.3065 8.90964 15.7565 7.95964 15.0648C7.0013 14.3648 6.09297 13.5898 5.2263 12.7315C4.36797 11.8648 3.59297 10.9565 2.9013 10.0065C2.21797 9.05649 1.66797 8.10649 1.26797 7.16483C0.867969 6.21483 0.667969 5.30649 0.667969 4.43983C0.667969 3.87316 0.767969 3.33149 0.967969 2.83149C1.16797 2.32316 1.48464 1.85649 1.9263 1.43983C2.45964 0.914827 3.04297 0.656494 3.65964 0.656494C3.89297 0.656494 4.1263 0.706494 4.33464 0.806494C4.5513 0.906494 4.74297 1.05649 4.89297 1.27316L6.8263 3.99816C6.9763 4.20649 7.08464 4.39816 7.15964 4.58149C7.23464 4.75649 7.2763 4.93149 7.2763 5.08983C7.2763 5.28983 7.21797 5.48983 7.1013 5.68149C6.99297 5.87316 6.83464 6.07316 6.63464 6.27316L6.0013 6.93149C5.90964 7.02316 5.86797 7.13149 5.86797 7.26483C5.86797 7.33149 5.8763 7.38983 5.89297 7.45649C5.91797 7.52316 5.94297 7.57316 5.95964 7.62316C6.10964 7.89816 6.36797 8.25649 6.73464 8.68983C7.10964 9.12316 7.50964 9.56483 7.94297 10.0065C8.39297 10.4482 8.8263 10.8565 9.26797 11.2315C9.7013 11.5982 10.0596 11.8482 10.343 11.9982C10.3846 12.0148 10.4346 12.0398 10.493 12.0648C10.5596 12.0898 10.6263 12.0982 10.7013 12.0982C10.843 12.0982 10.9513 12.0482 11.043 11.9565L11.6763 11.3315C11.8846 11.1232 12.0846 10.9648 12.2763 10.8648C12.468 10.7482 12.6596 10.6898 12.868 10.6898C13.0263 10.6898 13.193 10.7232 13.3763 10.7982C13.5596 10.8732 13.7513 10.9815 13.9596 11.1232L16.718 13.0815C16.9346 13.2315 17.0846 13.4065 17.1763 13.6148C17.2596 13.8232 17.3096 14.0315 17.3096 14.2648Z" stroke="#006D35" stroke-width="1.2" stroke-miterlimit="10"/>
</svg>
